<svg xmlns="http://www.w3.org/2000/svg" viewBox="0 0 400.16 400.2"><defs><style>.cls-2{fill:#0a85cb}</style></defs><path fill="#0b8ed9" d="M0 0h400.16v400.2H0z" id="Слой_2" data-name="Слой 2"/><g id="Layer_1" data-name="Layer 1"><path class="cls-2" d="M172.3 341.07V324h17.1v-14.84h-17.1v-17.09h-14.81v17.09H140.4V324h17.09v17.09zM143.4 321v-8.82h17.09v-17.11h8.82v17.09h17.09V321h-17.1v17.09h-8.82V321zM243.64 113.2L290 129l4.78-14-46.36-15.82zm47.36 3.67l-2.85 8.34-40.7-13.89 2.85-8.34zM279.44 107.08l4.7-13.77-14-4.78-4.7 13.77zM272 92.33l8.34 2.85-2.76 8.1-8.34-2.85zM273 125.9l-14-4.78-4.7 13.77 14 4.78zm-14.9 7.1l2.76-8.1 8.34 2.85-2.76 8.1zM181.48 132.6l5.31 29.8 29.8-5.31-5.31-29.8zm7.74 26.32L185 135l23.89-4.26 4.26 23.89zM214.16 126.78l5.31 29.8 29.8-5.31-5.27-29.8zm7.74 26.32l-4.26-23.89 23.89-4.21 4.26 23.89zM217.1 160l-29.8 5.31 5.31 29.8 29.8-5.31zm-26.32 7.74l23.89-4.26 4.26 23.89L195 191.6zM220 159.46l5.31 29.8 29.8-5.31-5.31-29.8zm7.74 26.32l-4.26-23.89 23.89-4.26 4.26 23.89z" transform="translate(.16 .1)"/><path class="cls-2" d="M207.32 141.97l-6.91 1.24-1.24-6.92-2.95.52 1.23 6.92-6.92 1.24.53 2.95 6.92-1.23 1.23 6.91 2.95-.52-1.23-6.92 6.92-1.23-.53-2.96zM237.98 132.99l-2.46-1.72-4.02 5.77-5.76-4.02-1.72 2.46 5.77 4.02-4.02 5.76 2.46 1.72 4.02-5.77 5.76 4.02 1.72-2.46-5.77-4.02 4.02-5.76z"/><path class="cls-2" transform="rotate(-10.1 204.642 171.819)" d="M195.46 171.19h17.05v3h-17.05z"/><path class="cls-2" transform="rotate(-10.11 206.293 181.46)" d="M197.19 180.87h17.05v3h-17.05z"/><path class="cls-2" transform="rotate(-10.11 238.115 170.773)" d="M229 170.21h17.05v3H229z"/><path class="cls-2" d="M341.23 51.12L360 61l-1.81 14.21 3 .38 1.67-13.1 2.3 1.21-1.18 2.25 2.66 1.39 1.12-2.34 3.18 1.67 1.39-2.66-3.18-1.67 1.18-2.25-2.66-1.39-1.18 2.3-3.3-1.73 1.7-13.27a9.73 9.73 0 0 0 1.33-16.5l3.1-5.91-2.66-1.39-3.1 5.91a9.74 9.74 0 0 0-12.83 10.46l-22.17 19.87 2 2.24zm13.19-16.91a6.76 6.76 0 1 1 8 9.6l.19.6-.53-.07-1.71 13.44L343.62 49l10.09-9-.36-.4.6-.19a6.72 6.72 0 0 1 .48-5.2z" transform="translate(.16 .1)"/><path class="cls-2" d="M359.3 39.46a3.6 3.6 0 0 0 4.87-1.51 3.6 3.6 0 1 0-4.87 1.51zm1.14-3.46a.6.6 0 0 1 .35-.3.62.62 0 0 1 .18 0 .6.6 0 1 1-.28 1.14.6.6 0 0 1-.25-.84zM262.53 34.45c-1-.25-2.09-.48-3.21-.67l-.52 3c1.05.18 2.06.4 3 .63zM256.09 33.31c-1.05-.12-2.14-.22-3.24-.29l-.2 3c1 .07 2.09.16 3.09.28zM243.33 36l-.2-3c-1.1.07-2.19.17-3.24.29l.35 3c1-.12 2.04-.22 3.09-.29zM248 35.85h1.56l.07-3h-3.24l.06 3zM237.18 36.72l-.51-3c-1.12.19-2.2.42-3.21.67l.72 2.91c.94-.18 1.95-.39 3-.58z" transform="translate(.16 .1)"/><path class="cls-2" d="M224.22 39.38a4.5 4.5 0 0 0-.45 1l-.14.24h.06a3.87 3.87 0 0 0-.13 1c0 5.74 12.29 8.74 24.43 8.74s24.43-3 24.43-8.74a4.12 4.12 0 0 0-.67-2.21l-.29.18L247.85-.1 224.3 39.44zm41.42-3.74l-.93 2.59a16.56 16.56 0 0 1 2.65 1.19l.26-.45 1.74 2.92c-.64 2.32-8.82 5.45-21.37 5.45-13.08 0-21.43-3.4-21.43-5.74a.93.93 0 0 1 0-.09l1.66-2.79.4.7a16.75 16.75 0 0 1 2.65-1.19l-1-2.82h-.09l17.67-29.65zM234.91 206.19c-7.28.75-13.88 3.48-19.93 6.32l1.28 2.71c5.81-2.73 12.13-5.35 19-6.05zM236.9 213.34c-7.28.75-13.88 3.48-19.93 6.32l1.28 2.71c5.81-2.73 12.13-5.35 19-6.05zM238.89 220.49c-7.28.75-13.88 3.48-19.93 6.32l1.28 2.71c5.81-2.73 12.12-5.35 19-6.05zM241.18 230.63l-.31-3c-7.28.75-13.88 3.48-19.93 6.32l1.28 2.71c5.78-2.66 12.13-5.33 18.96-6.03zM224.21 243.83c5.81-2.73 12.13-5.35 19-6.05l-.31-3c-7.28.75-13.88 3.48-19.93 6.32zM248.43 205.51c6.21-2.92 13-3.94 19.36-4.6l-.31-3c-6.65.69-13.71 1.75-20.33 4.87zM250.42 212.66c6.22-2.93 13-3.94 19.36-4.59l-.31-3c-6.65.68-13.71 1.75-20.33 4.86zM252.41 219.8c6.22-2.93 13-3.94 19.36-4.59l-.31-3c-6.65.68-13.71 1.75-20.33 4.86zM254.39 227c6.21-2.92 13-3.94 19.36-4.59l-.31-3c-6.65.69-13.71 1.75-20.33 4.86zM256.38 234.1c6.21-2.92 13-3.94 19.36-4.6l-.31-3c-6.65.69-13.71 1.75-20.33 4.87z" transform="translate(.16 .1)"/><path class="cls-2" d="M293.82 241.51l-13.69-49.26a1.5 1.5 0 0 0-1.85-1l-4.18 1.16-1.2-4.32a1.5 1.5 0 0 0-1.15-1.07c-12.58-2.52-22.79 3.31-32.66 9-12.45-2.38-22.59 3.4-32.39 9l-.68.39a1.5 1.5 0 0 0-.7 1.7l1.15 4.13-4.19 1.16a1.5 1.5 0 0 0-1 1.85l13.69 49.26a1.5 1.5 0 0 0 1.85 1l32.56-9a5.68 5.68 0 0 0 10.89-3l32.56-9a1.5 1.5 0 0 0 .99-2zm-23.56-51.76l12.63 45.45c-11.1-1.35-20.38 3.67-29.32 8.78l-12.68-45.63c9.45-5.35 18.42-10.43 29.37-8.59zm-32.37 9l12.63 45.45c-11.09-1.36-20.38 3.67-29.32 8.78l-12.68-45.63c9.48-5.35 18.42-10.44 29.36-8.6zm20 51.19a1.5 1.5 0 0 0-.92 2.15 2.6 2.6 0 0 1 .22.54 2.68 2.68 0 1 1-5.17 1.44 2.63 2.63 0 0 1-.09-.58 1.5 1.5 0 0 0-1.9-1.37l-32.63 9.07-12.89-46.37 2.74-.76 11.56 41.59a1.5 1.5 0 0 0 2.19.9l.68-.39c9.67-5.53 18.82-10.74 30-8.71a1.49 1.49 0 0 0 1.64.11l.68-.39c9.83-5.62 19.12-10.93 30.6-8.62a1.5 1.5 0 0 0 1.74-1.87l-11.51-41.4 2.74-.76 12.89 46.37zM196 235.79a14.58 14.58 0 0 0-3-10.12 14.65 14.65 0 1 0-21.58-1.74 14.63 14.63 0 0 0 8.82 25.29h1.2A14.66 14.66 0 0 0 196 235.79zM171.33 214a11.65 11.65 0 0 1 11.59-10.72h1a11.64 11.64 0 0 1 7 20.13 14.56 14.56 0 0 0-17.12-1.39 11.59 11.59 0 0 1-2.47-8.02zm17 11.25a11.58 11.58 0 0 1-12.37-1 11.56 11.56 0 0 1 5.39-1.33h.94a11.57 11.57 0 0 1 6.05 2.38zm-7.91 20.93a11.64 11.64 0 0 1-7-20.13 14.53 14.53 0 0 0 8.35 3.49h1.2a14.5 14.5 0 0 0 7.59-2.14 11.63 11.63 0 0 1-10.13 18.74zM118.44 68.66L25.67 22.88l23.5 69.27zm-7.82-.51L51 88.35l-.86-2.55 3.71-1.26-1-2.84-3.63 1.3-1.67-5 5.88-2-1-2.84-5.88 2-1.67-4.92L48.62 69l-1-2.84L44 67.45l-1.67-4.92 5.88-2-1-2.84-5.88 2-1.67-4.92 3.71-1.26-1-2.84-3.71 1.26L37 47l5.88-2-1-2.84-5.88 2-1.67-4.92L38.09 38l-1-2.84-3.67 1.24-2.59-7.62z" transform="translate(.16 .1)"/><path class="cls-2" d="M91.45 66.89L43.5 43.23 55.64 79zm-7.82-.51l-26.1 8.85-8.85-26.1z" transform="translate(.16 .1)"/><path class="cls-2" d="M93.04 157.97H80.53v3h9.51v43h-9.51v3h12.51v-49zM56.55 160.97v-3H44.04v49h12.51v-3h-9.51v-43h9.51z"/><path class="cls-2" d="M83.02 199.07l2.12-2.12-14.47-14.48 14.47-14.48-2.12-2.12-14.48 14.48-14.48-14.48-2.12 2.12 14.48 14.48-14.48 14.48 2.12 2.12 14.48-14.48 14.48 14.48zM371.44 123.05l-32.8-6.05-18.84 49.92-1.99-21.48-8.86-1.63-.54 2.95 6.63 1.22 2.97 32.18 22.55-59.76 30.34 5.6.54-2.95z"/><path class="cls-2" d="M366.74 135.42l-23.32-4.31-1.71 9.28 8.72 1.61-5.68 4.64-1.48 8 2-.25a14.37 14.37 0 0 1 4.14-.1 6.46 6.46 0 0 1 3.58 1.62 2.42 2.42 0 0 1 .67 2.29 2.28 2.28 0 0 1-1.23 1.83 4.57 4.57 0 0 1-2.95.28c-2.15-.4-4.51-1.9-7-4.46l-1.2-1.24-6 7.75.93.93a21.55 21.55 0 0 0 11.25 6.38 19.27 19.27 0 0 0 3.5.33 14.24 14.24 0 0 0 7.13-1.8 11.79 11.79 0 0 0 5.8-8.59 11.23 11.23 0 0 0-1.2-7.61 10.66 10.66 0 0 0-4-4.1l6.78-5.35zm-4.07 5.52l-9.91 7.82 2.53.92a8.35 8.35 0 0 1 4.76 3.81 8.19 8.19 0 0 1 .88 5.63 8.81 8.81 0 0 1-4.33 6.52 12.3 12.3 0 0 1-8.6 1.13 17.9 17.9 0 0 1-8.72-4.64l2.28-2.95a15.46 15.46 0 0 0 7.38 4.12 7.53 7.53 0 0 0 4.83-.55 5.3 5.3 0 0 0 2.84-4 5.43 5.43 0 0 0-1.45-4.9 9.32 9.32 0 0 0-5.21-2.51 12.9 12.9 0 0 0-3-.12l.55-3 9.85-8L345.2 138l.62-3.38 17.42 3.22zM293.13 311.18c4.07-20.05-9.61-39.31-13.77-44.6l11.4-6.6L308 289.81a11.74 11.74 0 0 0 10 6 9.68 9.68 0 0 0 4.87-1.3 10 10 0 0 0 4.75-6.72 12.09 12.09 0 0 0-1.45-8.52l-2.6 1.5a9.1 9.1 0 0 1 1.11 6.41 7 7 0 0 1-3.31 4.74c-3.58 2.07-8.4.43-10.76-3.64l-17.26-29.83 10.1-5.85L302 250l-35.65 20.63 1.5 2.6 8.92-5.16c3.48 4.4 17.33 23.42 13.46 42.47z" transform="translate(.16 .1)"/><path class="cls-2" d="M273.78 349.1a4.79 4.79 0 0 0 3.8 7.7 5 5 0 0 0 .65 0 4.78 4.78 0 0 0 .62-9.36l.35-12.17a4.74 4.74 0 0 0 2-1.5 4.79 4.79 0 1 0-8.55-2.27c0 .08 0 .16.06.24l-7.92 4.58a4.73 4.73 0 0 0-.5-.46l-.13-.08 12.5-35.13a4.79 4.79 0 1 0-5.26-4.1l-24 14.8-.08-.07a4.79 4.79 0 1 0-5.82 7.61 4.75 4.75 0 0 0 2.9 1 5 5 0 0 0 .64 0 4.76 4.76 0 0 0 3.17-1.84 4.77 4.77 0 0 0 .8-4.12l23.7-14.63a3.31 3.31 0 0 0 1 .75l-12.42 34.9a4.78 4.78 0 0 0 .08 9.56 5 5 0 0 0 .64 0 4.76 4.76 0 0 0 3.17-1.84 4.77 4.77 0 0 0 .94-3.56l8-4.65c.11.1.21.21.33.31a4.76 4.76 0 0 0 1.72.82l-.35 12.14a4.74 4.74 0 0 0-2.04 1.37zm5.23 4a1.79 1.79 0 1 1-.34-2.51 1.78 1.78 0 0 1 .33 2.5zm-4.32-58.35a1.79 1.79 0 0 1 2.85 2.17 1.79 1.79 0 0 1-2.85-2.17zm-28.85 21.38a1.79 1.79 0 1 1-.34-2.51 1.78 1.78 0 0 1 .35 2.5zm16.93 24.58a1.79 1.79 0 1 1-.34-2.51 1.78 1.78 0 0 1 .35 2.49zM275.6 331a1.79 1.79 0 0 1 2.86-1.66 1.79 1.79 0 1 1-2.86 1.66zM139.75 268l.91-2.86-13-4.16 1-16.2 13.38-2.54a7.32 7.32 0 0 0 .87-14.17l-13-4.16.41-6.6 31.6 1.94.18-3-66.1-4.09-.18 3 13.09.81a7.3 7.3 0 0 0 5 5.91l13 4.16-1 16.2-13.38 2.54a7.32 7.32 0 0 0-.87 14.17l13 4.16-.93 15.1-6-6.75-2.25 2 9.29 10.54 10.58-9.36-2-2.25-6.74 6 .89-14.39zm-25-48.94a4.31 4.31 0 0 1-2.81-2.87l15.42.95-.36 5.84zm15 8L142 230.9a4.32 4.32 0 0 1-.52 8.36l-12.64 2.39zm-17.29 29.1a4.32 4.32 0 0 1 .52-8.36l12.64-2.39-.9 14.68zM315.24 365l1.44.42 8.37-29 30.1 1.82.09-1.5a31.51 31.51 0 0 0-.4-7.24 31.36 31.36 0 1 0-39.6 35.5zm3.87-58a28.71 28.71 0 0 1 4.9-.42 28.35 28.35 0 0 1 28.3 28.58l-29.46-1.78-8.19 28.37a28.36 28.36 0 0 1 4.45-54.75z" transform="translate(.16 .1)"/><path class="cls-2" d="M347.12 369.4l1.19-.92-21-27.17-9.52 33 1.44.42a31 31 0 0 0 8.66 1.24 31.51 31.51 0 0 0 19.21-6.54zm-25.58 2.81l7-24.37 15.5 20.08a28.45 28.45 0 0 1-11.28 4.61 28.12 28.12 0 0 1-11.22-.32zM352.12 365.84a31.36 31.36 0 0 0 12.14-22.94l.09-1.5-34.59-2.09 21.18 27.44zm9-21.62a28.36 28.36 0 0 1-9.69 18.3l-15.29-19.81zM143.14 277.41l51.21 17-1 3.12 2.85.95 3-9.09-2.85-.95-1 3.12-15.18-5a11.09 11.09 0 0 0-20.85-6.93l-15.18-5 1-3.12-2.85-.95-3 9.09 2.85.95zm22.45-.15a8.1 8.1 0 0 1 11.66 8.32l-15.1-5a8 8 0 0 1 3.44-3.32z" transform="translate(.16 .1)"/><path class="cls-2" d="M168.64 266.68l3.3-9.91-4.01-1.33-.63 1.89 1.88.62-2.66 8.02 2.12.71z"/><path class="cls-2" d="M180.19 262.22a2.5 2.5 0 0 0-.34-2.25 4.48 4.48 0 0 0-4.91-1.63 2.49 2.49 0 0 0-1.62 1.59 2.76 2.76 0 0 0 .24 2.27 3.16 3.16 0 0 0-2.06 2.08 2.93 2.93 0 0 0 .32 2.54 4.89 4.89 0 0 0 5.47 1.82 2.93 2.93 0 0 0 1.78-1.85 3.16 3.16 0 0 0-.4-2.9 2.74 2.74 0 0 0 1.52-1.67zm-3.32 3.78a1.15 1.15 0 0 1-.82.81 2 2 0 0 1-2.15-.72 1.15 1.15 0 0 1-.17-1.14 1.19 1.19 0 0 1 .81-.82 2 2 0 0 1 2.18.73 1.19 1.19 0 0 1 .15 1.14zm1.17-4.28a1.12 1.12 0 0 1-.68.71 1.56 1.56 0 0 1-1.89-.63 1.15 1.15 0 0 1 .55-1.69 1.58 1.58 0 0 1 1.9.63 1.12 1.12 0 0 1 .08.98zM187.09 261.51a3.75 3.75 0 0 0-3.54.37 7.71 7.71 0 0 0-2.48 7.45 4.31 4.31 0 0 0 6.15 2 7.71 7.71 0 0 0 2.48-7.45 3.76 3.76 0 0 0-2.61-2.37zm.22 5.77a5.53 5.53 0 0 1-1.26 2.24 1.72 1.72 0 0 1-2.92-1 6.7 6.7 0 0 1 1.59-4.79 1.71 1.71 0 0 1 2.92 1 5.52 5.52 0 0 1-.32 2.55zM193.45 265.8a4.24 4.24 0 1 0-2.45-2.12 4.23 4.23 0 0 0 2.45 2.12zm.16-4.41a1.24 1.24 0 1 1 .07.94 1.23 1.23 0 0 1-.06-.94zM343.55 279.83a4.31 4.31 0 0 0 1.89 7.74 4.37 4.37 0 0 0 .66.05 4.31 4.31 0 0 0 3.47-6.86 4.32 4.32 0 0 0-6.02-.93zm3.32 4.53a1.32 1.32 0 0 1-1 .24 1.31 1.31 0 1 1 1-.24z" transform="translate(.16 .1)"/><path class="cls-2" d="M375 283.35a31.18 31.18 0 0 1-5.28 17l-14.24-14.54a8.56 8.56 0 0 0-1.57-6.38l-7.82-10.66-5.74 4.21-5-6.77-2.35 1.73 5 6.77-5.74 4.21 7.74 10.66a8.58 8.58 0 0 0 5.6 3.4l18.7 35.07 2.65-1.41-18-33.79a8.47 8.47 0 0 0 5.42-3.93l13.55 13.83a30.38 30.38 0 0 1-9.07 7.53l1.32 2.7a33.33 33.33 0 0 0 9.87-8.07l11.13 11.35 2.14-2.1-11.42-11.66a34 34 0 0 0 6.11-19.07zm-22.49 2a5.62 5.62 0 0 1-10.08 2.47l-6-8.24 9.06-6.64 6 8.24a5.58 5.58 0 0 1 1.02 4.16z" transform="translate(.16 .1)"/><path class="cls-2" d="M257.91 294.29l-40.62 4.91-10.9-8.55 8.55-10.9 40.62-4.91-.35-2.98-37.65 4.55 4.87-6.21-2.36-1.85-17.89 22.81 22.8 17.89 1.85-2.36-6.2-4.87 37.64-4.55-.36-2.98z"/><path class="cls-2" d="M91 271.86a33.33 33.33 0 0 0 6.58-6.27l.93-1.17-18.82-15-.93 1.17a9.2 9.2 0 0 1-12.67 1.71 9.22 9.22 0 0 1-.82-14.2 9.22 9.22 0 0 1 15.25 4.62l.35 1.46 23.39-5.59-.35-1.46a33.28 33.28 0 0 0-51.83-19.26c-.76.55-1.5 1.16-2.24 1.8l-1.09 1-1.1 1a33.35 33.35 0 0 0-3.09 42.61 33.09 33.09 0 0 0 7.85 7.75l1.22.78 1.3.83A33 33 0 0 0 91 271.86zm-37.17-51.55a30.29 30.29 0 0 1 46.78 16.07L83 240.59a12.23 12.23 0 0 0-9.5-7.8 12.36 12.36 0 0 0-2-.16 12.15 12.15 0 0 0-7.13 2.32L51.9 221.84c.64-.55 1.28-1.06 1.93-1.53zM47 262.58a30.34 30.34 0 0 1 2.72-38.68L62.19 237a12.22 12.22 0 0 0 1.07 16.87l-8 13.39-1.33 2.24a30.12 30.12 0 0 1-6.93-6.92zm9.48 8.54l.18-.3 9.07-15.21a12.19 12.19 0 0 0 13-.83 11.9 11.9 0 0 0 1.41-1.19l14.17 11.27a30.29 30.29 0 0 1-5 4.56 30.1 30.1 0 0 1-32.84 1.7zM300.16 24L264 60.5l11.23 11.34 36.12-36.48zm-31.89 36.5l2.73-2.72 2.11 2.13 2.13-2.11-2.13-2.15 3-3.05 3.49 3.53 2.11-2.13-3.51-3.55 3-3.05 2.11 2.13 2.13-2.11-2.13-2.15 3-3.05 3.49 3.53 2.2-2.1-3.51-3.55 3-3.05 2.11 2.13 2.13-2.11-2.13-2.15 3-3.05 3.49 3.53 2.13-2.11-3.51-3.55 1.44-1.46 7 7.08-31.9 32.22zM281.89 71l-3.2 14.72 14.6-3.24 32.6-32.93-11.39-11.48zm8.11 5.43l24.69-24.94 2.55 2.51-24.69 25zm-2.11-2.13l-2.53-2.55 24.69-24.94 2.53 2.55zm-3.77.45l5.44 5.5-7 1.55zm35.21-22.84l-7.16-7.24 2.31-2.34 7.16 7.24zM115.89 349.85l21.81-50.91-17-8.16-21.85 51 2.7 17.57zm-13.56-8.63l16.88-39.42 4.45 2.13-16.88 39.42zm-.05 3.3l9.42 4.51-7.92 5.24zm11.67 2.26l-4.45-2.13 16.88-39.42 4.45 2.13zm8.25-51.95l11.61 5.56-1.8 4.21-11.62-5.6zM115.32 288.43a30.78 30.78 0 0 0-41.94 15.77 34 34 0 0 0 16.38 43.57l1.41.68 25.44-59.39zm-25.65 55.92a31 31 0 0 1-13.53-39A27.86 27.86 0 0 1 92 290.07a27.55 27.55 0 0 1 9.72-1.77 28.26 28.26 0 0 1 11 2.25z" transform="translate(.16 .1)"/><path class="cls-2" d="M91.82 297.25A19.35 19.35 0 0 0 81.24 308c-4 9.24-1.19 19.63 6.17 23.15l1.41.68 14.41-33.63-1.3-.62a12.79 12.79 0 0 0-10.11-.33zm-4.47 30.37c-4.88-3.43-6.42-11.31-3.35-18.47a16.36 16.36 0 0 1 8.88-9.09 10.69 10.69 0 0 1 3.77-.72 9.18 9.18 0 0 1 2.65.39zM115.94 63.68c4.49 0 10.8-2.64 13.65-6.59 2.85 3.95 9.16 6.59 13.65 6.59a10.85 10.85 0 1 0 0-21.7c-4.49 0-10.8 2.64-13.65 6.59-2.85-3.95-9.16-6.59-13.65-6.59a10.85 10.85 0 0 0 0 21.7zM143.23 45a7.85 7.85 0 1 1 0 15.7c-4.57 0-12.15-3.8-12.15-7.85S138.67 45 143.23 45zm-27.3 0c4.57 0 12.15 3.8 12.15 7.85s-7.58 7.85-12.15 7.85a7.85 7.85 0 0 1 0-15.7zM146.62 135.33L130 136a1.5 1.5 0 0 0-.81.28L115.61 146a1.49 1.49 0 0 0-1.05.75l-13.78 9.85a1.49 1.49 0 0 0-.3.3 1.5 1.5 0 0 0-.18.35v.06a1.49 1.49 0 0 0-.06.41v.08a1.49 1.49 0 0 0 .07.43l15.19 44.33a1.49 1.49 0 0 0 .2.37 1.5 1.5 0 0 0 .27.26 1.49 1.49 0 0 0 .36.18h.08a1.48 1.48 0 0 0 .41.06h.06l16.94-.67a1.4 1.4 0 0 0 1.06 0l.22-.1 16.64-.66a1.5 1.5 0 0 0 .81-.28l13.57-9.71a1.4 1.4 0 0 0 .2 0 1.49 1.49 0 0 0 .83-.7l13.85-9.66.06-.05.12-.11.1-.1.09-.12.08-.13.06-.12.05-.14v-.14-.14-.14a1.47 1.47 0 0 0 0-.15v-.14a1.48 1.48 0 0 0 0-.16v-.07l-15.19-44.33a1.48 1.48 0 0 0-.21-.39v-.05a1.49 1.49 0 0 0-.31-.3 1.5 1.5 0 0 0-.4-.19 1.49 1.49 0 0 0-.43-.05l-16.93.67a1.49 1.49 0 0 0-1.47.03zM130.54 139l11.71-.46-9.48 7-11.75.33zm33.59-.47l6.58 19.2-11.71 8.35-6.58-19.2zm14.18 41.37l-11.72 8.38L160 169l11.72-8.38zm-25.83 18.47l-6.58-19.2 11.57-8.27 6.58 19.2zm-17 1.54l-6.58-19.2 14.21-.56 6.58 19.2zm-17.52.69l-6.58-19.2 14.4-.57L132.3 200zm-14.23-41.4l14.4-.57 6.58 19.2-14.4.57zm39.88 17.88l-11.71.46 9.48-7 11.75-.33zm-16-.1L121 157.79l11.51-8.44 6.58 19.19zm22-29l6.58 19.19-14.26.4-6.58-19.19zm-33 .92l11.87-.33-9.57 7-12.33.49zm33.3-3.9l-11.87.33 9.57-7 12.33-.49zM82.32 87.23L43 113.9l26.68 39.3 2.48-1.68-25-36.83 4.3-2.92a5.12 5.12 0 0 0 4.18 1.23l9 13.24a5.42 5.42 0 0 0 5.47 8.07l8.63 12.73 2.48-1.68-8.1-11.95 7-2.54 7.07 10.43 2.48-1.68-6.67-9.78 7-2.54 5.62 8.28 2.48-1.68-16-23.55a5.53 5.53 0 0 0-.49-5.31l-1.24.84 1.24-.84a5.53 5.53 0 0 0-4.75-2.42l-3.76-5.55 6-4.06 25 36.83 2.48-1.68-25-36.83L84 89.71zm-3.79 23.11l-5 5.58-5-7.38 7-2.54zm-7 7.89l-5 5.58-7.92-11.68 7-2.54zm-14.61-8.67l-.69-1 6-4.06 1.7 2.5zm14.45 21.31l-3.06-4.5 5-5.58 5.12 7.54zm9.92-3.59l-6-8.8 5-5.58 8 11.84zm-7.44-23.85l-7 2.54-2.14-3.16 6-4.06zM326.25 178.39L324.7 181l12.4 7.45-15.72 21.68-2.51-1.82-1.76 2.43 2.51 1.82-1.29 1.78-2.51-1.82-1.76 2.43 2.51 1.82-1.29 1.78-2.51-1.82-1.77 2.38 2.51 1.82-1.29 1.78-2.51-1.82-1.71 2.43 2.51 1.82-3.6 5-10.93-9.47-2 2.27 48.95 42.4 38.83-53.56zm29.85 36.3l-1.29 1.78-2.51-1.82-1.76 2.43 2.51 1.82-1.29 1.78-2.51-1.82-1.76 2.43 2.51 1.82-11.3 15.59-2.51-1.82-1.76 2.43 2.51 1.82-1.29 1.78-2.51-1.82-1.76 2.43 2.51 1.82-3.64 5-9.41-8.15L332.61 226l2.51 1.82 1.76-2.43-2.51-1.82 5.21-7.18 2.51 1.82 1.76-2.43-2.51-1.82 5.21-7.18 2.51 1.82 1.76-2.43-2.51-1.82 1.29-1.78 2.51 1.82 1.76-2.43-2.51-1.82 1.58-2.18 10.67 6.41-5.75 7.93-2.51-1.82-1.76 2.43zm-43.2 12.21l2.51 1.82 1.76-2.43-2.51-1.82 1.29-1.78 2.51 1.82 1.76-2.43-2.51-1.82 1.29-1.78 2.51 1.82 1.76-2.43-2.51-1.82 1.29-1.78 2.51 1.82 1.76-2.43-2.51-1.82L339.69 190l10.67 6.41-1.43 2-2.51-1.82-1.76 2.43 2.51 1.82-1.29 1.78-2.51-1.82-1.76 2.43 2.51 1.82-5.21 7.18-2.51-1.82-1.76 2.43 2.51 1.82-5.21 7.18-2.51-1.82-1.76 2.43 2.51 1.82-11.62 16-9.41-8.15zm29.52 34l-9.89-8.57 3.79-5.23 2.51 1.82 1.76-2.43-2.51-1.82 1.29-1.78 2.51 1.82 1.76-2.43-2.51-1.82 11.3-15.59 2.51 1.82 1.76-2.43-2.51-1.82 1.29-1.78 2.51 1.82 1.76-2.43-2.51-1.82 1.29-1.78 2.51 1.82 1.76-2.43-2.51-1.84 5.9-8.14 11.22 6.74z" transform="translate(.16 .1)"/><path class="cls-2" d="M128.7 36.78l2.89-.8-1.82-6.57 47.16-13.08-19.66 32 33.36 17.34L146.22 78l-4.35-9.67-38 17.13.36.8-3.23 8.52-.8.36 17.13 38 38-17.12-.36-.8 3.21-8.47.8-.36-11.53-25.6 51.31-14.23-37.25-19.35 22-35.8-57.4 15.92zm12.53 37.49l.15.33-.31.08zm-2.81-1.06l-2.15 5.67-26.72 12L107.8 87zm-16 46.36l-11.63-25.92L136.71 82l11.67 25.92zm-16.53-29.4l.89 2-2 .89zm2.12 4.71l12 26.72-2.15 5.67-13.71-30.63zm12.69 33.46l2.15-5.67 26.72-12 1.76 3.91zm32.5-17l-.89-2 2-.89zm1.79-6.47l-3.91 1.76-12-26.72.91-2.41 1.38 5 3.16-.88z" transform="translate(.16 .1)"/><path class="cls-2" d="M164.31 126l7.82-6.16 24 2.85a20.15 20.15 0 0 0 2.37.14 19.77 19.77 0 0 0 15.49-32 20 20 0 0 0-2.13-2.28l9.67-7.55-1.86-2.36-10.22 8.05a19.67 19.67 0 0 0-8.65-3.2l-31.1-3.69-.35 3 31.1 3.69a16.72 16.72 0 0 1 6.55 2.13l-15.4 12.13L177.11 99l-.35 3 11.47 1.36-17 13.37-5.86-.7-.35 3 2.88.34-5.47 4.31zm45.17-35.59a16.93 16.93 0 0 1 2.16 2.26 16.64 16.64 0 0 1 3.58 10.86l-19.46-2.31zm-17.05 13.44l22.44 2.66a16.76 16.76 0 0 1-18.38 13.2l-21-2.49zM287.88 137.64A14.52 14.52 0 0 0 271 155.16a14.53 14.53 0 0 0-2 28.79 14.68 14.68 0 0 0 2.72.26 14.41 14.41 0 0 0 7.82-2.32 14.47 14.47 0 0 0 9 5.76 14.71 14.71 0 0 0 2.72.26 14.53 14.53 0 0 0 5.88-27.8 14.53 14.53 0 0 0-9.32-22.45zM283 171.8a11.45 11.45 0 0 1-2.6 5.39 11.5 11.5 0 0 1 1.85-11l.21.05h.22a11.47 11.47 0 0 1 .32 5.56zm-13.44 9.2a11.53 11.53 0 0 1 2.11-22.87h.41a14.55 14.55 0 0 0 7.2 7 14.47 14.47 0 0 0-1.28 14.16 11.44 11.44 0 0 1-8.44 1.71zm6.55-22a11.42 11.42 0 0 1 4.66 3.56 11.49 11.49 0 0 1-4.66-3.56zm24.7 7.84A11.53 11.53 0 0 1 281.88 180a14.49 14.49 0 0 0 4-13.58 14.43 14.43 0 0 0 7.52-2.51 14.68 14.68 0 0 0 1.75-1.43 11.44 11.44 0 0 1 5.66 4.37zm-15.42-3.4a11.42 11.42 0 0 1 5.67-1.62 11.41 11.41 0 0 1-5.67 1.63zm8.59-4.37a14.44 14.44 0 0 0-10.53 2.06 14.42 14.42 0 0 0-9.06-5.76h-.21a11.53 11.53 0 0 1 11-15 11.67 11.67 0 0 1 2.16.2 11.54 11.54 0 0 1 6.87 18.54zM117.47 373.29H93.88c0-.21 0-.42-.08-.63l-3 .51v.12h-9.3l-5.5-6.18a9.5 9.5 0 0 1 .89-.59l-1.47-2.61a12.46 12.46 0 0 0-1.45 1l-8.84-9.76 5.72-5.72-2.12-2.12-13.5 13.42 2.12 2.12 5.65-5.61 17.26 19.06h37.23v7.86h3v-18.57h-3z" transform="translate(.16 .1)"/><path class="cls-2" d="M79.26 365.58a9.9 9.9 0 0 1 2.57-.26l.09-3a12.51 12.51 0 0 0-3.38.35zM86.7 366.86l1.65-2.51a12.43 12.43 0 0 0-3.07-1.46l-.91 2.86a9.5 9.5 0 0 1 2.33 1.11zM88.65 368.56a9.51 9.51 0 0 1 1.42 2.16l2.71-1.29a12.47 12.47 0 0 0-1.87-2.84z" transform="translate(.16 .1)"/><path class="cls-2" d="M221.37 337l-2.36-1.85-4.64 5.93-5.93-4.63-1.85 2.36 5.92 4.63-4.64 5.94 2.36 1.85 4.65-5.94 5.92 4.64 1.85-2.36-5.92-4.64 4.64-5.93z"/><path class="cls-2" d="M241.93 347.73l6.9-8.81L240 332l-2.49 3.18-21-16.42 2.49-3.18-8.8-6.89-6.9 8.81 3.22 2.52-16.41 21-3.22-2.52-6.9 8.81 8.8 6.89 2.52-3.23 21 16.42-2.52 3.23 8.8 6.89 6.9-8.81-3.22-2.52 16.41-21zm-1.39-11.49l4.08 3.19-3.2 4.09-4.08-3.19zm-29.78-23.31l4.08 3.19-3.2 4.09-4.08-3.21zM188.34 350l-4.08-3.19 3.2-4.09 4.08 3.19zm29.78 23.31L214 370.1l3.2-4.09 4.08 3.19zm1.83-9l-3.22-2.52-2.53 3.21-21-16.42 2.52-3.23-3.22-2.52 16.41-21 3.22 2.52 2.56-3.27 21 16.42-2.56 3.27 3.22 2.52z" transform="translate(.16 .1)"/><path class="cls-2" d="M294.74 98.71l1.46 2.63 24.03-13.33-5.14 17.96-12.49 6.92 1.46 2.62 9.86-5.46-4.81 16.76 2.89.83 5.63-19.65 26.66-14.79-1.46-2.62-24.03 13.33 5.14-17.96 12.49-6.92-1.46-2.63-9.86 5.47 4.81-16.77-2.89-.82-5.63 19.65-26.66 14.78zM46.96 319.09l6.39-26.46 11.48 19.01 2.56-1.55-27.36-45.32-2.57 1.56 13.68 22.65-7.1 29.41 2.92.7z"/><path class="cls-2" d="M239.82 81.44l10.49 12.77 2.32-1.9-6.6-8 5.82 2.65 3.25-33.15-28.58 6.75L211.34 42 209 43.94l14.25 17.35-18.21 4.3zm11.88-23.78l-2.43 24.79-7.58-3.45-13.05-15.9zm-16.21 18.51l-21.21-9.67 11.12-2.63z" transform="translate(.16 .1)"/><path class="cls-2" d="M399.04 22.84l1.13-1.52v-5.04l-1.76 2.36-16.02-11.86-9.99 13.49 16.03 11.86-11.87 16.03 13.49 9.98 10.12-13.65v-5.05l-10.74 14.51-8.67-6.42 11.86-16.02-16.02-11.87 6.42-8.66 16.02 11.86z"/><path class="cls-2" d="M339.76 104.84l22.82 3.51L400 91.79v-3.28l-36.82 16.3-3.18-7.27 40-17.72v-3.28L358.75 94.8l-3.22-7.27L400 67.85v-3.28l-47.5 21zm20.19.07l-15.1-2.32 8.43-12.74z" transform="translate(.16 .1)"/><path class="cls-2" d="M384.94 159.4l5.89 2.5-30.18 12.19 1.13 2.79 32.95-13.32 5.44 2.31v-3.26l-14.06-5.97-1.17 2.76zM369.14 195.11l30.18-12.19-2.5 5.89 2.76 1.18.59-1.38v-9.27l-32.15 12.99 1.12 2.78zM390.55 207.75l-1.14 2.78 7.84 3.22-13.96 13.95 2.13 2.12 14.75-14.74v-4.24l-.62.61-9-3.7z"/><path class="cls-2" d="M399.73 148.72l.27.16v-3.57c-10.06-6.6-15.08-13.46-14-15.25l7.16-11.43 1.39-.48a3.35 3.35 0 0 1-.21-1.06 1 1 0 0 1 .13-.55l5.49-8.76v-5.65l-16.5 26.34c-2.93 4.76 5.96 13.79 16.27 20.25z" transform="translate(.16 .1)"/><path class="cls-2" d="M393.32 122.13a25.71 25.71 0 0 0 2 2.51l2.26-2a22.7 22.7 0 0 1-1.73-2.22zM397.43 126.91c.7.69 1.47 1.39 2.28 2.08l.29-.33v-3.45l-.48-.45z" transform="translate(.16 .1)"/><path class="cls-2" d="M367.91 352.52l29.28 13.83-17.82 6.55 1.04 2.82 19.76-7.27v-4.02l-30.98-14.62-1.28 2.71zM374.76 338.02l25.41 11.99v-3.32l-24.13-11.38-1.28 2.71zM392.08 301.33l8.09 3.82v-3.32l-6.81-3.21-1.28 2.71z"/><path class="cls-2" d="M381.07 261.74A26.45 26.45 0 0 0 400 296.58v-3.08a23.47 23.47 0 0 1-4-44 23.73 23.73 0 0 1 4-1.43V245a26.73 26.73 0 0 0-5.24 1.81 26.31 26.31 0 0 0-13.69 14.93z" transform="translate(.16 .1)"/><path class="cls-2" d="M17.94 53.98l9.99-13.49L11.9 28.63l11.87-16.02-13.49-9.99L.17 16.28v5.04L10.9 6.82l8.67 6.41L7.71 29.26l16.02 11.86-6.42 8.67L1.29 37.92.17 39.44v5.05l1.75-2.37 16.02 11.86z"/><path class="cls-2" d="M21.72 55L0 64.57v3.28l10.64-4.71 3.22 7.27L0 76.54v3.28l15.07-6.67 3.22 7.27L0 88.51v3.28l31.79-14.07zm-8.34 7l6.81-3 7.65 17.28-6.81 3z" transform="translate(.16 .1)"/><path class="cls-2" d="M.17 162.61v3.26l5.41 2.3-4.6 10.85-.81.32v9.27l9.35-22.03-9.35-3.97z"/><path class="cls-2" d="M12 219.77l-1.5 3.64 2.77 1.14 1.5-3.64 11.89 4.89.11 21h3l-.12-19.8 7.84 3.22 1.14-2.78-9-3.7-.13-23.18a10.07 10.07 0 0 0 5.1-5.32l6-14.5-8-3.27 4-9.69-2.77-1.14-4 9.69-8-3.27-6 14.5a10 10 0 0 0-.11 7.37L0 210.74V215l.09-.09zm6.69-31L23.5 177l13.16 5.41-4.82 11.73a7.11 7.11 0 0 1-13.16-5.41zm-1.37 8.95a9.88 9.88 0 0 0 9.21 3.78l.11 21.09-10.74-4.45 1.5-3.64-2.77-1.14-1.51 3.64-10.73-4.41z" transform="translate(.16 .1)"/><path class="cls-2" d="M24.06 194.34a4.9 4.9 0 1 0-2.67-6.4 4.89 4.89 0 0 0 2.67 6.4zm.1-5.26a1.9 1.9 0 1 1 1 2.48 1.9 1.9 0 0 1-.99-2.48zM25 154.48l16.93-27c3-4.76-5.91-13.79-16.23-20.25S3.41 96.67.44 101.43l-.44.7v5.65l.69-1.1c2.24 4.69 8.76 10.47 16 15s15.19 7.83 20.4 7.83h.07L31 139.36a1.82 1.82 0 0 1-1.18.59l.19 1-7.47 11.94c-1.17 1.87-10.21.15-21.17-6.71-.46-.29-.89-.57-1.33-.86v3.57c7.12 4.42 15 7.67 20.13 7.67 2.23-.01 3.96-.64 4.83-2.08zm-6.78-35.34C7.3 112.28 1.81 104.89 3 103c.29-.46 1.06-.71 2.22-.71 3.54 0 10.7 2.25 18.94 7.41 11 6.86 16.45 14.24 15.28 16.11s-10.23.19-21.18-6.68z" transform="translate(.16 .1)"/><path class="cls-2" d="M24.5 139.42l-.75 2.9a24 24 0 0 0 3.14.61l.35-3a21 21 0 0 1-2.74-.51zM11.22 133.53l-1.43-.87-1.07-.66-1.64 2.51 1.11.71 1.48.91zM13.77 135l-1.43 2.64c.92.5 1.84 1 2.73 1.4l1.31-2.7c-.85-.44-1.73-.89-2.61-1.34zM0 125.21v3.45l1.67-1.94c-.59-.51-1.14-1.01-1.67-1.51zM3.93 128.57l-1.84 2.37c.79.61 1.62 1.23 2.46 1.83l1.74-2.45q-1.22-.87-2.36-1.75zM21.76 138.58c-.87-.31-1.79-.66-2.71-1.05l-1.17 2.76c1 .41 2 .79 2.88 1.12zM34.77 380.74l-30-14.15L22 360.28l.34.16a21 21 0 0 0 9 2 22 22 0 0 0 20.59-29.17A21.14 21.14 0 0 0 40.9 321L0 301.73V305l39.62 18.7a18.17 18.17 0 0 1 9.44 10.53 18.83 18.83 0 0 1-.78 14.33 18.64 18.64 0 0 1-24.7 9.11l-.78-.37-.19-.52-.51.19L0 346.59v3.32l18.16 8.57L1 364.79l-1-.46v4l.84-.33 32.65 15.41zM17.14 294.8A26.51 26.51 0 0 0 30 259.61a26.31 26.31 0 0 0-15-13.69A26.28 26.28 0 0 0 0 245v3.09a23.22 23.22 0 0 1 5.94-.78 23.5 23.5 0 0 1 8 1.43 23.29 23.29 0 0 1 12.55 10.82h-.05l1.27 2.72h.07a23.51 23.51 0 0 1-11.95 29.82A23.38 23.38 0 0 1 0 293.5v3.08a26.51 26.51 0 0 0 6 .7 26.33 26.33 0 0 0 11.14-2.48z" transform="translate(.16 .1)"/><path class="cls-2" transform="rotate(-25 6.991 270.09)" d="M5.88 268.95h1.63v3H5.88z"/><path class="cls-2" transform="rotate(-24.99 22.206 263.076)" d="M20.47 261.87h2.86v3h-2.86z"/><path class="cls-2" transform="rotate(-24.99 11.857 267.907)" d="M10.11 266.7h2.86v3h-2.86z"/><path class="cls-2" transform="rotate(-25.01 17.024 265.474)" d="M15.29 264.28h2.86v3h-2.86z"/><path class="cls-2" d="M280.44 22.25h.06a1.49 1.49 0 0 0 .32.17h.11a1.49 1.49 0 0 0 .43.07l30.79-.32a1.5 1.5 0 0 0 1.41-1L320.71.1h-3.17l-6.47 19.16-27.61.29L290 .1h-3.17l-6.24 18.49-21.78-17 .54-1.49h-3.17l-.53 1.56a1.5 1.5 0 0 0 .5 1.66z" transform="translate(.16 .1)"/><path class="cls-2" d="M156.15 6.9l5.86-2.08 9.4-3.34 3.6-1.28h-11.54l.29.81-5.79 2.06L156.95.2h-3.18l1.37 3.87-6.26 2.23-2.16-6.1h-3.19l3.53 9.93 9.09-3.23zM192.47 49.41L241.67.2h-4.24l-44.96 44.96-13.1-13.1 5.88-5.89 4.25 4.25 2.12-2.12-4.24-4.25 6.44-6.44 6.55 6.55 2.12-2.12-6.55-6.55 6.44-6.45 4.25 4.25 2.12-2.12-4.24-4.25 6.44-6.44 6.55 6.55 2.12-2.12L214.91.2h-7.92l-31.86 31.86 17.34 17.35z"/><path class="cls-2" d="M64.53 27A24.54 24.54 0 0 0 78 .1h-3.11a21.56 21.56 0 0 1-6.61 20.79 18.05 18.05 0 0 0 .22-2.79h-3a14.7 14.7 0 0 1-.23 2.71l2.54.49a21.32 21.32 0 0 1-2.92 2.09l-.44-.27a3 3 0 0 1-1 1.07 2.41 2.41 0 0 1-.39.18 21.55 21.55 0 0 1-2.3.9l.24-.91a8.87 8.87 0 0 1-2.33-1L57 25.88l.37.21a21.53 21.53 0 0 1-22.82-11.91A21.35 21.35 0 0 1 33 .1h-3.08a24.37 24.37 0 0 0 1.92 15.37A24.53 24.53 0 0 0 64.53 27z" transform="translate(.16 .1)"/><path class="cls-2" d="M54.44 24l2-2.27a26.32 26.32 0 0 1-2-2l-2.19 2A29.36 29.36 0 0 0 54.44 24zM43.75 8.83l2.72-1.26c-.41-.89-.8-1.79-1.15-2.68L42.54 6c.37.94.78 1.89 1.21 2.83zM46.63 14.28l2.57-1.54c-.49-.82-1-1.68-1.43-2.54l-2.65 1.4c.48.91.99 1.81 1.51 2.68zM44.32 2.16C44.1 1.47 43.89.78 43.7.1h-3.14c.26 1 .56 2 .89 3zM50.14 19.38l2.35-1.86c-.58-.73-1.16-1.52-1.72-2.34l-2.47 1.7c.6.88 1.21 1.72 1.84 2.5zM64.18 9.63l2.89-.82c-.27-1-.59-2-.93-2.95l-2.83 1c.32.93.61 1.86.87 2.77zM65.33 15.27l3-.35c-.12-1-.29-2-.51-3.09l-2.94.61c.19.98.35 1.93.45 2.83zM60.84.1h-.46l.1.18zM65 3c-.39-.93-.81-1.88-1.26-2.81l-2.71 1.3c.42.88.82 1.78 1.19 2.67zM109.73 40.42l15.21-30.07a16.2 16.2 0 0 0 4.91.78 17.68 17.68 0 0 0 6.41-1.23l-1.09-2.8a13.73 13.73 0 0 1-11.3-.4 13.42 13.42 0 0 1-6.18-6.6h-3.24a16.54 16.54 0 0 0 7.73 9.09l-15.12 29.87z" transform="translate(.16 .1)"/><path class="cls-2" d="M101.8.2h-3.37l-13.9 27.48 2.67 1.35L101.8.2zM374.53.2h-4.42l-29.27 27.08-5.48-18.87L344.23.2h-4.42l-4.37 4.05.3-4.05h-3.01l-.53 7.04-.24.23 7.35 25.3L374.53.2z"/><path class="cls-2" d="M325.7 384.56v-.13a1.49 1.49 0 0 0-.14-.29v-.09a1.48 1.48 0 0 0-.27-.28L301 364.84a1.64 1.64 0 0 0-.94-.32l-30.79.32a1.5 1.5 0 0 0-.39.06h-.09a1.49 1.49 0 0 0-.28.15l-.11.08a1.48 1.48 0 0 0-.21.21l-.08.1a1.48 1.48 0 0 0-.2.37l-11.72 34.29h3.17l10.57-31.3 10.73 8.36 11.06 8.61-4.84 14.33H290l4.52-13.37 27.61-.29-4.61 13.66h3.17l5-14.7a1.49 1.49 0 0 0 .07-.42v-.13a1.47 1.47 0 0 0-.06-.29zm-31.7-.82l-20.49-16 26-.27 20.49 16z" transform="translate(.16 .1)"/><path class="cls-2" d="M134.84 353.59l1.29-2.71-10.25-4.87-4.88 10.25 2.71 1.29 2.67-5.63 17.15 48.28h3.19l-17.51-49.28 5.63 2.67z"/><path class="cls-2" d="M208.52 388.14l-.06-.17.8-1.69-1.69-.8-.06-.17-.17.06-8.34-4-1.29 2.71 5.63 2.68-8.62 3.06-12.11-34.08-11.44 4.06 12.11 34.08-2.71 1-15-42.2-11.44 4.06 15 42.21-2.71 1-9.68-27.25-11.44 4.06 8.3 23.37h3.18l-7.65-21.55 5.79-2.06 8.38 23.6h11.55l6.73-2.39 2.71-1 11.44-4.06 8.62-3.06-2.68 5.63 2.71 1.29 4-8.34zm-34.18 9l-2.38.85-14-39.38 5.79-2.06 14 39.38zm11.77-4.18L175 361.66l5.79-2.06 11.1 31.26z" transform="translate(.16 .1)"/><path class="cls-2" d="M206.99 400.2h7.92l-1.84-1.84 6.44-6.45 4.25 4.25 2.12-2.12-4.25-4.25 6.45-6.44 6.55 6.55 2.12-2.12-6.55-6.55 3.81-3.81 13.11 13.1-9.69 9.68h4.24l9.69-9.68-17.35-17.35-27.02 27.03z"/><path class="cls-2" d="M43.35 382.79a24.48 24.48 0 0 0-13.43 17.31H33a21.58 21.58 0 0 1 6.58-11.21 17.12 17.12 0 0 0-.19 1.9l3 .13a12.39 12.39 0 0 1 .38-2.64l-1.86-.5a21.51 21.51 0 0 1 2.7-1.72l.16.13a2.72 2.72 0 0 1 .71-.6h.06a2.49 2.49 0 0 1 .84-.28v-.08a21.5 21.5 0 0 1 2.73-1l-.52 1.39a10.9 10.9 0 0 1 2.31 1.25l1.7-2.47c-.38-.26-.75-.49-1.12-.7a21.41 21.41 0 0 1 24.41 16.4H78a24.51 24.51 0 0 0-34.62-17.31z" transform="translate(.16 .1)"/><path class="cls-2" d="M54.09 386.4l-2 2.21c.66.61 1.33 1.29 2 2l2.24-2c-.77-.78-1.51-1.54-2.24-2.21zM40.74 400.1h3c-.07-.24-.14-.49-.2-.73zM42.47 393.72l-3 .26c.09 1 .23 2 .43 3.11l3-.54c-.22-.97-.35-1.92-.43-2.83zM59.08 397.72c.45.77.88 1.57 1.29 2.38h.46l2.31-1.18c-.47-.92-1-1.83-1.47-2.71zM58.27 391.06l-2.39 1.81c.57.75 1.13 1.54 1.68 2.37l2.5-1.65c-.59-.88-1.19-1.73-1.79-2.53zM116.68 397.13a16.46 16.46 0 0 0-22.29-11.28l1.09 2.8a14 14 0 0 1 8.86-.53l-6.07 12h3.36l5.49-10.85a13.75 13.75 0 0 1 6.66 8.67l.19.71c.14.5.3 1 .47 1.47h3.24a15.3 15.3 0 0 1-.82-2.26z" transform="translate(.16 .1)"/><path class="cls-2" d="M370.65 371.67l-36.58 10.64-1.34 17.89h3.01l1.16-15.59 28.83-8.38-25.92 23.97h4.42l26.42-24.44 5.48 18.87-6.02 5.57h4.42l5-4.63-7.36-25.3-1.52 1.4z"/></g></svg>