<svg data-name="Layer 1" xmlns="http://www.w3.org/2000/svg" viewBox="0 0 350 350"><path fill="#4f7ebf" d="M0 0h350v350H0z"/><path d="M222 308.45a45.12 45.12 0 0 0-8.9-2.36c-1.6-.3-3.65 3.33-4.57 8.08v.18c-.91 4.75-.36 8.89 1.23 9.19l2.38.46.5.09a13.62 13.62 0 0 1 6.48 23.57 13.48 13.48 0 0 1-3.77 2.35h23.46A31.28 31.28 0 0 0 222 308.45zM198.72 345a13.38 13.38 0 0 1-1.76-3.86c-.39-1.42-.45-2.91-.73-4.36a31.85 31.85 0 0 0-17.73-22.65c-4.27-2-8.93-2.63-13.5-3.5l-2-.39h-.18a8.82 8.82 0 0 0-10.29 7v.18a8.82 8.82 0 0 0 7 10.29h.12l2.1.41 6.53 1.25a13.88 13.88 0 0 1 10.44 10.19c.35 1.47.38 3 .71 4.45a34 34 0 0 0 1.27 4.32c.21.57.45 1.14.7 1.7h23.44a13.76 13.76 0 0 1-6.12-5.03zm-75.26-33.4v.18a8.82 8.82 0 0 0 7 10.29h.18a8.81 8.81 0 0 0 10.29-7v-.18a8.82 8.82 0 0 0-7-10.29h-.18a8.81 8.81 0 0 0-10.29 6.99zm80.7-293.28a31.82 31.82 0 0 0 27.58-8.12A31.12 31.12 0 0 0 238.79 0h-23.46A13.72 13.72 0 0 1 205 .09l-.25-.09H181.3a31.56 31.56 0 0 0 3.24 5.71 31.67 31.67 0 0 0 19.62 12.61zm-18 165.29c2.05-.58 4.2-.69 6.26-1.25a48.23 48.23 0 0 0 6-2 44.44 44.44 0 1 0-58.61-56.46 63.92 63.92 0 0 0-2.81 12.7c-.35 2.29 4.91 5 11.67 6h.26c6.77 1 12.6 0 12.94-2.23l.52-3.39.1-.71a19.29 19.29 0 1 1 30.32 18.55 19 19 0 0 1-5.37 2.7c-2 .62-4.09.79-6.12 1.26a45.09 45.09 0 0 0-31.09 26.31c-2.54 6.15-3.24 12.77-4.23 19.29l-.44 2.91v.26a12.5 12.5 0 0 0 10.43 14.19h.26a12.48 12.48 0 0 0 14.19-10.43v-.17l.46-3 1.42-9.31a19.66 19.66 0 0 1 13.81-15.22zm-36.56 79.56h.26a12.49 12.49 0 0 0 14.14-10.4v-.26a12.48 12.48 0 0 0-10.43-14.18h-.26a12.49 12.49 0 0 0-14.19 10.43v.26a12.48 12.48 0 0 0 10.45 14.15zm-31.05-86.72l.14.1a8.06 8.06 0 0 0 11.24-1.7l.1-.14a8.06 8.06 0 0 0-1.7-11.24l-.14-.1a8.05 8.05 0 0 0-11.23 1.7l-.1.13a8.06 8.06 0 0 0 1.66 11.25zm-38.7-51.06a29.11 29.11 0 0 0 5.69 25.67c2.75 3.3 6.32 5.69 9.75 8.21l1.53 1.13.13.1a8.07 8.07 0 0 0 11.24-1.7l.1-.14a8.06 8.06 0 0 0-1.7-11.24l-.09-.07-1.57-1.16-4.9-3.61a12.69 12.69 0 0 1-4.6-12.52c.29-1.35.86-2.61 1.17-4a31.2 31.2 0 0 0 .65-4.06 28.69 28.69 0 0 0-56.62-8.7 29.11 29.11 0 0 0 6.75 25.23 41.27 41.27 0 0 0 6.41 5.47c1.2.88 4.33-1.3 7-4.86l.1-.14c2.62-3.56 3.8-7.19 2.61-8.06l-1.78-1.32-.37-.27A12.45 12.45 0 1 1 81 117.63a12.24 12.24 0 0 1-.07 3.88c-.24 1.32-.77 2.58-1.11 3.88zM1.42 222.24a15.32 15.32 0 0 1 15.91-2.48c1.53.66 2.88 1.64 4.4 2.32a37.68 37.68 0 0 0 4.65 1.74 34.84 34.84 0 0 0 33.26-7.54 34.64 34.64 0 0 0-9.57-57.42 35.14 35.14 0 0 0-31.46 2 49.81 49.81 0 0 0-8 6.3c-1.33 1.21.52 5.43 4.11 9.38l.14.15c3.59 3.94 7.61 6.2 8.92 5l2-1.8.41-.38a15 15 0 1 1 9.25 26.11 14.78 14.78 0 0 1-4.57-1c-1.51-.6-2.87-1.53-4.33-2.24A35.29 35.29 0 0 0 0 200.81v22.71l1.41-1.29zm331.36-9.57l-1.69 1.54-.15.13a9.74 9.74 0 0 0-.65 13.71l.14.15a9.73 9.73 0 0 0 13.71.65l.1-.09 1.75-1.59 4-3.66v-22.7a33.37 33.37 0 0 0-5.19 2.26c-4.55 2.48-8.22 6.14-12.02 9.6zm-25.84 23.46l-.15.14a9.73 9.73 0 0 0-.65 13.71l.14.15a9.73 9.73 0 0 0 13.71.65l.15-.14a9.72 9.72 0 0 0 .64-13.7l-.13-.15a9.73 9.73 0 0 0-13.7-.66zm-220.6-66.72a6.14 6.14 0 0 0-8.63-.71l-.1.09a6.14 6.14 0 0 0-.7 8.63l.09.1a6.13 6.13 0 0 0 8.63.7l.1-.08a6.14 6.14 0 0 0 .7-8.63zm28.9 72.91A21.86 21.86 0 0 0 132.56 210a31.42 31.42 0 0 0-3.8-5.17c-.74-.87-3.44.21-6 2.39l-.1.09c-2.56 2.18-4.07 4.66-3.34 5.52l1.09 1.29.23.27a9.48 9.48 0 1 1-16.64 5.27 9.31 9.31 0 0 1 .73-2.86c.41-.94 1-1.78 1.51-2.68a22.17 22.17 0 0 0 .26-20c-1.47-2.93-3.69-5.32-5.8-7.79l-.94-1.1-.08-.1a6.14 6.14 0 0 0-8.63-.7l-.1.08a6.14 6.14 0 0 0-.71 8.63l.05.07 1 1.14 3 3.53a9.67 9.67 0 0 1 1.22 10.08c-.45 1-1.1 1.78-1.56 2.73a23.67 23.67 0 0 0-1.2 2.9 21.84 21.84 0 0 0 22.54 28.77zm178.13-59.1a14.69 14.69 0 0 1-14.89-4.09c-1.08-1.18-1.87-2.57-2.94-3.76a36.3 36.3 0 0 0-3.39-3.35 33.22 33.22 0 1 0-18 58.12 47.74 47.74 0 0 0 9.46-2.37c1.64-.54 1.68-5 .1-9.82l-.07-.18c-1.59-4.86-4.22-8.42-5.84-7.89l-2.44.79-.51.17a14.42 14.42 0 1 1 2.18-26.48 14.15 14.15 0 0 1 3.61 2.67c1.08 1.12 1.91 2.47 2.9 3.66a33.69 33.69 0 0 0 28 11.89c5-.38 9.61-2.13 14.3-3.67l2.09-.68.18-.06a9.34 9.34 0 0 0 6-11.74l-.06-.19a9.33 9.33 0 0 0-11.74-6h-.12l-2.15.7-6.69 2.19zm44.37 5.34l.18-.07a9.33 9.33 0 0 0 6-11.74l-.07-.18a9.33 9.33 0 0 0-11.74-6l-.19.07a9.33 9.33 0 0 0-6 11.74l.06.18a9.34 9.34 0 0 0 11.76 6zm-141.08 113h.14a6.62 6.62 0 0 0 6.08-7.09v-.14a6.61 6.61 0 0 0-7.08-6.07h-.14a6.62 6.62 0 0 0-6.08 7.08v.14a6.62 6.62 0 0 0 7.08 6.12zM212 253a23.56 23.56 0 1 0-37-22.15 34 34 0 0 0 0 6.91c.09 1.22 3.13 2 6.75 1.72h.14c3.62-.28 6.51-1.49 6.41-2.7l-.14-1.81v-.38a10.22 10.22 0 1 1 17.88 6 10.1 10.1 0 0 1-2.45 2c-1 .56-2 .9-3 1.38a23.91 23.91 0 0 0-12.91 17.3c-.57 3.48-.15 7 .12 10.47l.12 1.55v.14a6.62 6.62 0 0 0 7.08 6.08h.14a6.62 6.62 0 0 0 6.08-7.08v-.09l-.12-1.6-.38-5a10.43 10.43 0 0 1 5.32-9.57c1-.54 2.08-.86 3.08-1.39A25.68 25.68 0 0 0 212 253zM89.5 27.28l1.4 1.82 4.35 5.65a14.87 14.87 0 0 1 1.13 15.59c-.76 1.43-1.82 2.66-2.59 4.07a36.56 36.56 0 0 0-2 4.36 33.62 33.62 0 1 0 61.51-2.5 48.35 48.35 0 0 0-5.46-8.22c-1.07-1.38-5.29.07-9.4 3.23l-.15.13c-4.1 3.16-6.61 6.87-5.55 8.24l1.58 2.06.33.43a14.59 14.59 0 1 1-26 6.87 14.34 14.34 0 0 1 1.33-4.35c.7-1.41 1.71-2.65 2.51-4a34.12 34.12 0 0 0 1.88-30.75c-2-4.61-5.28-8.45-8.33-12.41l-1.36-1.76-.12-.16a9.46 9.46 0 0 0-13.26-1.74l-.15.13a9.44 9.44 0 0 0-1.72 13.21zm-4.28 313.18A9.44 9.44 0 0 0 72 338.74l-.15.13A9.44 9.44 0 0 0 68.94 350h17.61a9.43 9.43 0 0 0-1.21-9.39zM70.26 2.23a9.44 9.44 0 0 0 13.21 1.71l.16-.12A9.34 9.34 0 0 0 86.55 0H68.94a9.36 9.36 0 0 0 1.19 2.07zm190 241.07a37.12 37.12 0 0 0-40.4 47.36 53.51 53.51 0 0 0 4.44 9.94c.91 1.7 5.78.89 10.82-1.79l.19-.11c5-2.69 8.45-6.27 7.54-8l-1.35-2.53-.29-.53a16.1 16.1 0 1 1 29.6-2.64 15.83 15.83 0 0 1-2.24 4.49c-1 1.41-2.35 2.57-3.47 3.9a37.65 37.65 0 0 0-7.66 33.13c1.38 5.38 4.21 10.16 6.8 15l1.16 2.17.1.19a10.44 10.44 0 0 0 14.07 4.29l.19-.11A10.42 10.42 0 0 0 284 334l-.07-.13-1.19-2.23-3.7-6.94a16.41 16.41 0 0 1 1.61-17.17c1.09-1.42 2.46-2.56 3.57-4a40.47 40.47 0 0 0 3-4.38 37.09 37.09 0 0 0-27-55.87zM281.9 15.57a10.42 10.42 0 0 0 14.1 4.29l.19-.11a10.43 10.43 0 0 0 4.29-14.07l-.11-.19a10.42 10.42 0 0 0-14.06-4.27l-.19.1a10.43 10.43 0 0 0-4.28 14.07zm43.51 253.94a35.8 35.8 0 0 0 13.3 70 51.42 51.42 0 0 0 10.29-2.29 1.75 1.75 0 0 0 1-1.13v-6.84c-.17-.84-.37-1.71-.64-2.6l-.07-.2c-1.57-5.28-4.29-9.19-6.06-8.66l-2.65.78-.55.17a15.53 15.53 0 1 1 3.12-28.46 15.25 15.25 0 0 1 3.81 3c1.14 1.24 2 2.71 3 4v-26.2a36.09 36.09 0 0 0-24.55-1.57zm-295.6 41.41c5.35-.26 10.42-2 15.51-3.53l2.27-.68.2-.05a10.07 10.07 0 0 0 6.76-12.47l-.07-.2A10.05 10.05 0 0 0 42 287.23h-.13l-2.34.69-7.27 2.16a15.83 15.83 0 0 1-15.92-4.84c-1.13-1.3-1.94-2.82-3.06-4.14a38.91 38.91 0 0 0-3.55-3.71A36.13 36.13 0 0 0 1.89 272c-.62-.32-1.25-.61-1.89-.88v26.2a36.31 36.31 0 0 0 29.81 13.6zm44.52-33.25l-.2.07a10 10 0 0 0-6.75 12.46l.06.2a10.06 10.06 0 0 0 12.47 6.76l.2-.06a10.05 10.05 0 0 0 6.76-12.47l-.06-.2a10.06 10.06 0 0 0-12.48-6.76zM321.61 10.11a36.41 36.41 0 0 0-24 22.15 51.64 51.64 0 0 0-2.31 10.27c-.28 1.84 4 4 9.42 4.87h.21c5.46.83 10.17 0 10.45-1.8l.42-2.74.08-.57a15.57 15.57 0 1 1 24.48 15 15.3 15.3 0 0 1-4.36 2.19c-1.61.5-3.31.64-4.94 1A36.41 36.41 0 0 0 306 81.74c-2 5-2.62 10.31-3.42 15.58l-.36 2.35v.21a10.09 10.09 0 0 0 8.42 11.46h.21a10.08 10.08 0 0 0 11.46-8.42v-.14l.37-2.42 1.14-7.52A15.87 15.87 0 0 1 335 80.49c1.66-.47 3.39-.56 5.06-1a38.87 38.87 0 0 0 4.88-1.64 36.35 36.35 0 0 0 5.06-2.61V14.09a36.38 36.38 0 0 0-28.39-3.98zm-12.87 114.56h-.21a10.08 10.08 0 0 0-11.46 8.42v.21a10.08 10.08 0 0 0 8.42 11.46h.21a10.08 10.08 0 0 0 11.46-8.42v-.21a10.07 10.07 0 0 0-8.42-11.46zm-292-74.6A36.38 36.38 0 0 0 6.3 18.93 34.92 34.92 0 0 0 0 14.09v61.15A35.76 35.76 0 0 0 3.22 73a36.2 36.2 0 0 0 13.55-22.92zm65.67 191a5.25 5.25 0 0 0-6.77-3h-.1a5.25 5.25 0 0 0-3 6.77v.1a5.25 5.25 0 0 0 6.77 3h.1a5.25 5.25 0 0 0 3-6.77zM66 247.51v-.1a5.25 5.25 0 0 0-6.77-3h-.07l-1.19.46-3.7 1.42a8.27 8.27 0 0 1-8.49-1.87c-.64-.63-1.13-1.39-1.76-2a20.39 20.39 0 0 0-2-1.78 18.69 18.69 0 0 0-29.61 10 18.71 18.71 0 0 0 21.19 23.15 26.89 26.89 0 0 0 5.25-1.6c.91-.35.8-2.83-.23-5.52v-.1c-1-2.69-2.61-4.61-3.51-4.27l-1.35.52-.28.11A8.12 8.12 0 1 1 33.9 248a8 8 0 0 1 2.11 1.4c.64.6 1.14 1.33 1.74 2a19 19 0 0 0 16.09 5.89 34.49 34.49 0 0 0 7.93-2.47l1.15-.44h.1a5.26 5.26 0 0 0 2.98-6.87zm54.07 37.93a14.76 14.76 0 1 0-19.47-18.76 21.29 21.29 0 0 0-1 4.23c-.11.76 1.63 1.66 3.88 2h.09c2.25.34 4.18 0 4.3-.74l.17-1.13v-.24a6.41 6.41 0 1 1 10.19 6.2 6.3 6.3 0 0 1-1.78.9c-.66.21-1.36.26-2 .42a15 15 0 0 0-10.36 8.68 27.29 27.29 0 0 0-1.41 6.41l-.15 1v.08a4.15 4.15 0 0 0 3.46 4.71h.09a4.15 4.15 0 0 0 4.71-3.46v-.06l.15-1 .47-3.09a6.53 6.53 0 0 1 4.6-5.09c.68-.19 1.39-.23 2.08-.41a16 16 0 0 0 2.02-.65zm-14.89 19.27h-.09a4.15 4.15 0 0 0-4.71 3.47v.09a4.15 4.15 0 0 0 3.46 4.71h.16a4.15 4.15 0 0 0 4.71-3.47v-.09a4.14 4.14 0 0 0-3.49-4.71zm27.94-9.44h.08a3.86 3.86 0 0 0 2.7-4.72v-.08a3.86 3.86 0 0 0-4.72-2.7h-.08a3.86 3.86 0 0 0-2.7 4.72v.08a3.86 3.86 0 0 0 4.76 2.69zm22.3-2.41c.42.51.72 1.1 1.13 1.61a14.9 14.9 0 0 0 1.33 1.45 13.73 13.73 0 1 0 8.61-23.62 19.84 19.84 0 0 0-4 .78c-.69.19-.8 2-.24 4.05v.08c.56 2 1.57 3.56 2.25 3.38l1-.28.21-.06a6 6 0 1 1-1.45 10.89A5.84 5.84 0 0 1 163 290c-.43-.48-.74-1.06-1.12-1.57a13.93 13.93 0 0 0-11.32-5.49 25.32 25.32 0 0 0-6 1.22l-.88.24h-.08a3.86 3.86 0 0 0-2.7 4.72v.08a3.85 3.85 0 0 0 4.72 2.7h.05l.9-.25 2.81-.77a6.08 6.08 0 0 1 6.08 1.98zM43.14 54l.05-.17a8.41 8.41 0 0 0-5.43-10.55l-.17-.05A8.41 8.41 0 0 0 27 48.68v.17a8.4 8.4 0 0 0 5.44 10.54l.17.06A8.41 8.41 0 0 0 43.14 54zM5.58 109.32a30.38 30.38 0 0 0 23.48-14.2c2.34-3.82 3.51-8.12 4.86-12.39l.6-1.89.05-.16a8.42 8.42 0 0 0-5.43-10.55h-.17a8.41 8.41 0 0 0-10.55 5.43v.11l-.62 1.94-1.93 6A13.25 13.25 0 0 1 5 92.34c-1.43.17-2.86 0-4.3.16l-.7.1v17.21a12.28 12.28 0 0 1 1.37-.29c1.39-.21 2.81-.1 4.21-.2zm1.18 42.78A30.38 30.38 0 0 0 29.45 137a43.14 43.14 0 0 0 3.26-8.16c.47-1.48-2.73-3.84-7.13-5.25h-.17c-4.39-1.4-8.38-1.36-8.84.11l-.71 2.2-.15.46a13.21 13.21 0 0 1-10.12 8.84 12.84 12.84 0 0 1-5.59-.33v17.2a29 29 0 0 0 6.76.03zM339 96.09a29.89 29.89 0 0 0 11 56v-17.2a13 13 0 0 1-2.48-24.13 12.91 12.91 0 0 1 2.48-.93V92.6a31.68 31.68 0 0 0-3.54.62 30.16 30.16 0 0 0-7.46 2.87zM49.45 86.33h.09A4.49 4.49 0 0 0 55.41 84v-.09A4.49 4.49 0 0 0 53 78a4.5 4.5 0 0 0-5.87 2.39v.09a4.49 4.49 0 0 0 2.32 5.85zm5.85-13.88h.09a4.49 4.49 0 0 0 5.87-2.39V70l.42-1L63 65.91a7.08 7.08 0 0 1 6.18-4.13c.77 0 1.52.13 2.29.12a17.24 17.24 0 0 0 2.29-.18 16 16 0 1 0-15.45-24.86A23 23 0 0 0 56.19 41c-.32.77 1.27 2.17 3.54 3.13h.09c2.27 1 4.39 1.12 4.71.36l.47-1.05.1-.24a6.94 6.94 0 1 1 8.95 9.14 6.81 6.81 0 0 1-2.11.47c-.75 0-1.5-.08-2.25-.1a16.23 16.23 0 0 0-13.17 6.45 29.47 29.47 0 0 0-3.17 6.36l-.41 1v.08a4.5 4.5 0 0 0 2.36 5.85zm166.46-5.92l.13-.11a8.06 8.06 0 0 0 .46-11.36l-.12-.12a8.06 8.06 0 0 0-11.36-.46l-.12.12a8.06 8.06 0 0 0-.46 11.4l.12.12a8.05 8.05 0 0 0 11.35.41zM272 102.61l-.12.12c-3.25 3-5.1 6.33-4.09 7.42l1.5 1.63.31.34a12.45 12.45 0 1 1-21.58 7.8 12.2 12.2 0 0 1 .8-3.79c.49-1.25 1.25-2.38 1.83-3.6a29.11 29.11 0 0 0-.72-26.28c-2.08-3.76-5.13-6.78-8-9.91l-1.29-1.39-.11-.12a8.07 8.07 0 0 0-11.36-.47l-.12.12a8.06 8.06 0 0 0-.46 11.36l.08.08 1.33 1.43 4.12 4.47a12.69 12.69 0 0 1 2.11 13.18c-.54 1.27-1.34 2.39-1.9 3.66a31.15 31.15 0 0 0-1.41 3.86 28.69 28.69 0 1 0 52.08-6.79 41.37 41.37 0 0 0-5.26-6.57c-1-1.1-4.48.46-7.74 3.45zm-33.48-54.13a28.61 28.61 0 0 0 3.71 4.5c.71.75 3.11-.36 5.33-2.47l.08-.08c2.22-2.11 3.47-4.44 2.76-5.18l-1.05-1.11-.22-.23A8.62 8.62 0 1 1 264 38.29a8.5 8.5 0 0 1-.52 2.63c-.33.87-.84 1.66-1.23 2.51a20.16 20.16 0 0 0 .75 18.19 36.64 36.64 0 0 0 5.65 6.79l.9 1 .08.09a5.59 5.59 0 0 0 7.87.21l.08-.08a5.58 5.58 0 0 0 .21-7.87l-.05-.06-.93-1-2.9-3.06a8.78 8.78 0 0 1-1.61-9.09c.36-.88.91-1.67 1.28-2.55a21.45 21.45 0 0 0 .94-2.69 19.87 19.87 0 1 0-36 5.2zm52.13 26.82l-.08-.08a5.58 5.58 0 0 0-7.87-.22l-.08.08a5.58 5.58 0 0 0-.22 7.92l.08.08a5.58 5.58 0 0 0 7.87.21l.08-.08a5.58 5.58 0 0 0 .22-7.92zm-92.31-51a4.91 4.91 0 0 0-5.55 4.14v.1a4.9 4.9 0 0 0 4.13 5.54h.1a4.91 4.91 0 0 0 5.54-4.08v-.1a4.91 4.91 0 0 0-4.14-5.55zM191 89.91a17.72 17.72 0 0 0 11.61-10.86 25.06 25.06 0 0 0 1.09-5c.13-.9-1.94-1.95-4.6-2.34h-.1c-2.66-.39-4.95 0-5.08.91l-.2 1.33v.28a7.58 7.58 0 1 1-12-7.21 7.42 7.42 0 0 1 2.1-1.08c.78-.25 1.61-.32 2.4-.51A17.72 17.72 0 0 0 198.39 55a32.22 32.22 0 0 0 1.61-7.59l.17-1.14v-.1a4.91 4.91 0 0 0-4.13-5.55h-.1a4.91 4.91 0 0 0-5.55 4.13v.07l-.17 1.18-.53 3.66a7.73 7.73 0 0 1-5.4 6.06c-.81.23-1.65.28-2.46.51a18.77 18.77 0 0 0-2.37.81A17.46 17.46 0 0 0 191 89.91zm-64.53-67.39c.86.56 2.91-1.08 4.56-3.62l.06-.1c1.65-2.55 2.31-5.09 1.45-5.64l-1.28-.83-.27-.17a8.7 8.7 0 0 1-3.88-8 8.52 8.52 0 0 1 1.6-4.2h-12.13a18.92 18.92 0 0 0-.43 2 20 20 0 0 0 5.69 17 28.42 28.42 0 0 0 4.63 3.56zm19.89 315.88a19.71 19.71 0 0 0-29.78 11.6h12.15a8.56 8.56 0 0 1 4.05-3.09 8.4 8.4 0 0 1 9.8 3.09h12.12a19.88 19.88 0 0 0-8.34-11.6zM144.14 5.93c-.11.92-.42 1.8-.6 2.71a20 20 0 0 0 5 17.36 36.33 36.33 0 0 0 7 5.22l1.1.71.1.06a5.54 5.54 0 0 0 7.64-1.64l.06-.1a5.54 5.54 0 0 0-1.64-7.64h-.06l-1.13-.73-3.51-2.27a8.72 8.72 0 0 1-3.68-8.39c.14-.94.48-1.82.64-2.76a21.43 21.43 0 0 0 .28-2.81 19.84 19.84 0 0 0-.54-5.24c0-.12-.08-.25-.11-.37h-12.11A8.61 8.61 0 0 1 144 3.27a8.39 8.39 0 0 1 .14 2.66zM172.23 42l.1.06a5.54 5.54 0 0 0 7.67-1.61l.06-.1a5.54 5.54 0 0 0-1.64-7.64l-.1-.06a5.53 5.53 0 0 0-7.63 1.64l-.06.1a5.54 5.54 0 0 0 1.6 7.61zM20.78 14.08a21.45 21.45 0 0 0 19.15-1.83 30.37 30.37 0 0 0 4.75-4c.79-.76-.42-3.3-2.68-5.64l-.09-.09A14 14 0 0 0 38.71 0H36l-.8.78L35 1a9.32 9.32 0 0 1-9.25 2.12A9.18 9.18 0 0 1 21.33 0H8.19a21.45 21.45 0 0 0 12.59 14.08zM62 320.46a5.94 5.94 0 0 0-8.37-.14l-.06.06-1 1-3.22 3.12a9.35 9.35 0 0 1-9.66 1.81c-.94-.37-1.79-.95-2.73-1.33A23.15 23.15 0 0 0 34 324a21.26 21.26 0 0 0-20.15 5.23 21.43 21.43 0 0 0-6.2 18.34 20.36 20.36 0 0 0 .54 2.43h13.14a9.14 9.14 0 0 1-1.87-4.53 9.17 9.17 0 0 1 9.36-10.21 9.07 9.07 0 0 1 2.81.52c.93.34 1.78.88 2.68 1.28a21.44 21.44 0 0 0 19.34-1 39 39 0 0 0 7.16-6.06l1-1 .09-.08a6 6 0 0 0 .14-8.38zm14.18-5.28l.09-.09a5.94 5.94 0 0 0 .14-8.37l-.09-.09a5.94 5.94 0 0 0-8.38-.14l-.09.09a5.94 5.94 0 0 0-.13 8.37l.09.09a5.94 5.94 0 0 0 8.32.14zm37.62-181.29a8.08 8.08 0 1 0 15.16 3.41 11.65 11.65 0 0 0-.45-2.33c-.11-.41-1.18-.48-2.39-.16-1.2.32-2.1.91-2 1.31l.16.6v.13a3.51 3.51 0 1 1-6.41-.89 3.43 3.43 0 0 1 .7-.84c.29-.25.63-.43.93-.66a8.2 8.2 0 0 0 3.27-6.65 14.91 14.91 0 0 0-.7-3.52l-.14-.52a2.27 2.27 0 0 0-2.77-1.61 2.27 2.27 0 0 0-1.61 2.77l.14.53.44 1.66a3.58 3.58 0 0 1-1.19 3.56c-.3.25-.65.42-1 .66a8.83 8.83 0 0 0-.86.78 8.12 8.12 0 0 0-1.34 1.77zm4.53-14.67a2.27 2.27 0 0 0 1.61-2.77 2.27 2.27 0 0 0-2.77-1.61 2.27 2.27 0 0 0-1.61 2.77 2.27 2.27 0 0 0 2.71 1.61zM297 218.84a2.27 2.27 0 0 0-3.18-.39l-.43.34-1.39 1.07a3.58 3.58 0 0 1-3.75.3c-.34-.18-.64-.43-1-.62a8.93 8.93 0 0 0-1.05-.49 8.08 8.08 0 0 0-6.65 14.71 8.21 8.21 0 0 0 7.36.08 11.67 11.67 0 0 0 2-1.33c.33-.26 0-1.27-.79-2.25-.77-1-1.66-1.58-2-1.32l-.49.38-.1.08a3.51 3.51 0 1 1-1.7-6.24 3.42 3.42 0 0 1 1 .31c.34.17.64.41 1 .6a8.21 8.21 0 0 0 7.4.4 14.94 14.94 0 0 0 3-2l.42-.33a2.27 2.27 0 0 0 .39-3.18zm5.6-1.43a2.27 2.27 0 0 0 .39-3.18 2.27 2.27 0 0 0-3.18-.39 2.27 2.27 0 0 0-.39 3.18 2.27 2.27 0 0 0 3.14.38z" fill="#5488c8"/></svg>