<svg xmlns="http://www.w3.org/2000/svg" viewBox="0 0 207.19 53.87"><defs><style>.cls-1{isolation:isolate;}.cls-2{fill:#fff;}.cls-3{fill:#fccf1a;}</style></defs><title>startum-logo-1-2</title><g id="Слой_2" data-name="Слой 2"><g id="Слой_1-2" data-name="Слой 1"><g id="Странички"><g id="_01-Startum-menu-01" data-name="01-Startum-menu-01"><g id="Лого"><g id="Образовательные-цент" class="cls-1"><g class="cls-1"><path class="cls-2" d="M76.85,32.74a10.36,10.36,0,0,1-.1,1.44,3.81,3.81,0,0,1-.42,1.35,2.59,2.59,0,0,1-1,1,3.41,3.41,0,0,1-1.77.4,3.84,3.84,0,0,1-1.25-.18,2.6,2.6,0,0,1-.88-.5,2.33,2.33,0,0,1-.57-.72,3.86,3.86,0,0,1-.32-.88,8,8,0,0,1-.15-1q0-.5,0-1c0-.24,0-.51,0-.8a5.43,5.43,0,0,1,.16-.88,4.08,4.08,0,0,1,.34-.85,2.53,2.53,0,0,1,.57-.74,2.61,2.61,0,0,1,.88-.51,3.44,3.44,0,0,1,1.23-.2,3.64,3.64,0,0,1,1.72.35,2.52,2.52,0,0,1,1,.92,3.43,3.43,0,0,1,.45,1.28A9.73,9.73,0,0,1,76.85,32.74Zm-1.38.12a8,8,0,0,0-.09-1.27,2.5,2.5,0,0,0-.31-.91,1.37,1.37,0,0,0-.57-.55,1.93,1.93,0,0,0-.92-.19,1.67,1.67,0,0,0-.85.2,1.46,1.46,0,0,0-.56.57,2.78,2.78,0,0,0-.3.91,7.67,7.67,0,0,0-.09,1.24,8.92,8.92,0,0,0,.08,1.22,2.79,2.79,0,0,0,.28.91,1.4,1.4,0,0,0,.56.57,1.76,1.76,0,0,0,.88.2,1.93,1.93,0,0,0,.92-.19,1.46,1.46,0,0,0,.57-.56,2.57,2.57,0,0,0,.31-.91A7.58,7.58,0,0,0,75.47,32.86Z"/><path class="cls-2" d="M78.13,33.91q0-.88.06-1.68a6,6,0,0,1,.26-1.46,3.43,3.43,0,0,1,.51-1,2.86,2.86,0,0,1,.91-.76c.16-.08.35-.16.55-.24l.66-.19.69-.17.67-.15a.27.27,0,0,1,.18,0s.07.08.1.17l.13.48q0,.09,0,.21c0,.08,0,.13-.14.16l-.59.14-.53.12a9.83,9.83,0,0,0-1,.33,2,2,0,0,0-.64.43,1.68,1.68,0,0,0-.37.6,3.79,3.79,0,0,0-.18.87l0,0a1.66,1.66,0,0,1,.71-.45,2.56,2.56,0,0,1,.87-.14,2.38,2.38,0,0,1,1.09.22,1.84,1.84,0,0,1,.71.61,2.65,2.65,0,0,1,.38.91A5.65,5.65,0,0,1,83.35,34a5.86,5.86,0,0,1-.09,1,2.41,2.41,0,0,1-.38.93,2.15,2.15,0,0,1-.8.68,3.17,3.17,0,0,1-1.37.25,2.92,2.92,0,0,1-1.36-.26,2,2,0,0,1-.78-.69,2.4,2.4,0,0,1-.35-1A6.59,6.59,0,0,1,78.13,33.91Zm2.7-1.59a1.39,1.39,0,0,0-.73.16,1.33,1.33,0,0,0-.41.44,1.58,1.58,0,0,0-.18.58,4.72,4.72,0,0,0-.05.64,4.07,4.07,0,0,0,.05.61,1.28,1.28,0,0,0,.17.52,1,1,0,0,0,.38.36,1.25,1.25,0,0,0,.66.14,1.41,1.41,0,0,0,.68-.14,1.12,1.12,0,0,0,.4-.38,1.56,1.56,0,0,0,.18-.54,4.4,4.4,0,0,0,0-.64,4.88,4.88,0,0,0,0-.68,1.84,1.84,0,0,0-.17-.56,1.09,1.09,0,0,0-.36-.38A1.27,1.27,0,0,0,80.83,32.32Z"/><path class="cls-2" d="M89.69,33.85a7.29,7.29,0,0,1-.11,1.31,2.5,2.5,0,0,1-.38,1,1.6,1.6,0,0,1-.73.6,2.85,2.85,0,0,1-1.17.21,4.6,4.6,0,0,1-.69-.06,4.4,4.4,0,0,1-.81-.21h0V38.8a.38.38,0,0,1,0,.16.2.2,0,0,1-.19.08h-.85c-.1,0-.16,0-.19-.06a.3.3,0,0,1,0-.18V31.19c0-.16.07-.24.23-.24h.85c.09,0,.15,0,.17.06a.35.35,0,0,1,0,.18v.36l0,0c.11-.07.23-.15.38-.23s.31-.16.47-.24a4.56,4.56,0,0,1,.52-.18,2.41,2.41,0,0,1,.53-.07,1.91,1.91,0,0,1,1,.22,1.53,1.53,0,0,1,.61.6,3,3,0,0,1,.31.95A7.63,7.63,0,0,1,89.69,33.85Zm-1.36,0a7.33,7.33,0,0,0,0-.92,1.41,1.41,0,0,0-.18-.54.56.56,0,0,0-.29-.26,1.07,1.07,0,0,0-.41-.07,1.62,1.62,0,0,0-.41.06l-.45.14a4.08,4.08,0,0,0-.42.17l-.33.17v3a3.81,3.81,0,0,0,.74.16,4.72,4.72,0,0,0,.64,0,1.42,1.42,0,0,0,.54-.09.74.74,0,0,0,.36-.32,1.56,1.56,0,0,0,.2-.61A6.08,6.08,0,0,0,88.33,33.84Z"/><path class="cls-2" d="M94.46,36.14a3.89,3.89,0,0,1-1,.57,3.41,3.41,0,0,1-1.18.21,2.29,2.29,0,0,1-.8-.12,1.29,1.29,0,0,1-.51-.35,1.38,1.38,0,0,1-.26-.53,3,3,0,0,1-.08-.7,1.89,1.89,0,0,1,.55-1.53,2.6,2.6,0,0,1,1.71-.47H94.4V32.9a1.47,1.47,0,0,0-.05-.45.6.6,0,0,0-.2-.31.79.79,0,0,0-.38-.17,3.4,3.4,0,0,0-.61,0H92.8l-.43,0c-.15,0-.3,0-.44,0l-.41,0a.61.61,0,0,1-.24,0s-.08-.06-.09-.15l-.11-.44a.24.24,0,0,1,0-.19.58.58,0,0,1,.26-.16,2.24,2.24,0,0,1,.45-.12l.54-.08.55,0a5.41,5.41,0,0,1,1.73.13,1.62,1.62,0,0,1,.7.44,1.46,1.46,0,0,1,.31.69,5.1,5.1,0,0,1,.07.91v2.32a1.91,1.91,0,0,0,0,.28.34.34,0,0,0,.06.16.32.32,0,0,0,.13.08l.22,0a.44.44,0,0,1,.18,0s.05.07.05.13v.51c0,.13-.09.22-.29.25l-.28,0-.28,0a1.25,1.25,0,0,1-.68-.16.82.82,0,0,1-.35-.57Zm-.07-2H92.93a1.1,1.1,0,0,0-.72.21,1,1,0,0,0-.27.8.74.74,0,0,0,.17.55.84.84,0,0,0,.58.15,2.18,2.18,0,0,0,.42,0,3.81,3.81,0,0,0,.45-.13l.45-.19c.14-.07.27-.13.38-.2Z"/><path class="cls-2" d="M100.42,33.68a1.41,1.41,0,0,1,.76.58,1.58,1.58,0,0,1,.21.78,1.61,1.61,0,0,1-.24.92,1.81,1.81,0,0,1-.62.58,2.83,2.83,0,0,1-.83.3,4.57,4.57,0,0,1-.88.08H98.4a4.8,4.8,0,0,1-.52,0,4.51,4.51,0,0,1-.53-.09,1.34,1.34,0,0,1-.44-.15c-.11,0-.18-.09-.2-.15a.4.4,0,0,1,0-.22l.08-.38c0-.1,0-.16.1-.18a.33.33,0,0,1,.2,0q.42.06.87.09l.82,0a2.29,2.29,0,0,0,.47,0,1.06,1.06,0,0,0,.38-.12.67.67,0,0,0,.25-.25A.8.8,0,0,0,100,35a.72.72,0,0,0-.09-.37.79.79,0,0,0-.23-.25,1.15,1.15,0,0,0-.34-.13,1.72,1.72,0,0,0-.39,0h-.46a.26.26,0,0,1-.18,0,.2.2,0,0,1,0-.16v-.54c0-.08,0-.12,0-.15a.38.38,0,0,1,.19,0h.42a1.52,1.52,0,0,0,.69-.15.53.53,0,0,0,.31-.51.55.55,0,0,0-.29-.55,1.49,1.49,0,0,0-.66-.14,6.49,6.49,0,0,0-.72,0l-.78.07a.5.5,0,0,1-.26,0,.3.3,0,0,1-.09-.18L97,31.42a.21.21,0,0,1,0-.2.55.55,0,0,1,.16-.12A1.65,1.65,0,0,1,97.6,31a3.86,3.86,0,0,1,.49-.09,4.57,4.57,0,0,1,.52-.05h.47a4.18,4.18,0,0,1,.8.07,2.27,2.27,0,0,1,.69.25,1.47,1.47,0,0,1,.49.5,1.62,1.62,0,0,1,.18.81,1,1,0,0,1,0,.32,1.74,1.74,0,0,1-.16.34,1.11,1.11,0,0,1-.25.32,1.38,1.38,0,0,1-.36.23Z"/><path class="cls-2" d="M107.6,33.79a9.87,9.87,0,0,1-.06,1.07,2.8,2.8,0,0,1-.33,1,2.07,2.07,0,0,1-.79.76,3,3,0,0,1-1.46.29,2.86,2.86,0,0,1-1.42-.29,2,2,0,0,1-.77-.76,2.61,2.61,0,0,1-.32-1,9.87,9.87,0,0,1-.06-1.07,6.49,6.49,0,0,1,.08-.93,2.74,2.74,0,0,1,.34-1,2.27,2.27,0,0,1,.78-.76,2.68,2.68,0,0,1,1.37-.3,3.16,3.16,0,0,1,1.39.26,2.09,2.09,0,0,1,.8.69,2.58,2.58,0,0,1,.36,1A6.2,6.2,0,0,1,107.6,33.79Zm-1.33.09a5.27,5.27,0,0,0,0-.84,1.47,1.47,0,0,0-.19-.59,1,1,0,0,0-.39-.35A1.58,1.58,0,0,0,105,32a1.4,1.4,0,0,0-.62.12.88.88,0,0,0-.38.36,1.86,1.86,0,0,0-.19.59,6.91,6.91,0,0,0,0,1.66,1.78,1.78,0,0,0,.19.59.84.84,0,0,0,.37.35,1.4,1.4,0,0,0,.62.12,1.8,1.8,0,0,0,.67-.11.91.91,0,0,0,.4-.35,1.42,1.42,0,0,0,.19-.59A5.27,5.27,0,0,0,106.27,33.88Z"/><path class="cls-2" d="M109.05,36.83a.3.3,0,0,1-.24-.07.24.24,0,0,1,0-.18v-5.4c0-.09,0-.15,0-.18A.3.3,0,0,1,109,31h2.56a2.23,2.23,0,0,1,1.52.43,1.49,1.49,0,0,1,.48,1.16,1.92,1.92,0,0,1-.13.59,1.19,1.19,0,0,1-.57.59,1.23,1.23,0,0,1,.43.28,1.69,1.69,0,0,1,.27.36,1.43,1.43,0,0,1,.13.38,2.35,2.35,0,0,1,0,.35,1.73,1.73,0,0,1-.16.72,1.81,1.81,0,0,1-.44.55,2,2,0,0,1-.65.35,2.54,2.54,0,0,1-.78.12Zm3.2-4.19a.59.59,0,0,0,0-.23.49.49,0,0,0-.13-.2.8.8,0,0,0-.26-.14,1.18,1.18,0,0,0-.4,0h-1.36v1.29h1.44a.72.72,0,0,0,.55-.2A.62.62,0,0,0,112.25,32.64Zm.17,2.37a.84.84,0,0,0-.19-.53.77.77,0,0,0-.64-.23h-1.54v1.49h1.4a1.3,1.3,0,0,0,.48-.08.74.74,0,0,0,.29-.17.63.63,0,0,0,.15-.24A.79.79,0,0,0,112.42,35Z"/><path class="cls-2" d="M118.58,36.14a3.89,3.89,0,0,1-1,.57,3.43,3.43,0,0,1-1.19.21,2.23,2.23,0,0,1-.79-.12,1.29,1.29,0,0,1-.51-.35,1.38,1.38,0,0,1-.26-.53,3,3,0,0,1-.08-.7,1.89,1.89,0,0,1,.55-1.53,2.6,2.6,0,0,1,1.71-.47h1.53V32.9a1.47,1.47,0,0,0,0-.45.6.6,0,0,0-.2-.31.79.79,0,0,0-.38-.17,3.44,3.44,0,0,0-.62,0h-.35l-.43,0L116,32l-.4,0a.61.61,0,0,1-.24,0q-.08,0-.09-.15l-.11-.44a.24.24,0,0,1,0-.19.59.59,0,0,1,.25-.16,2.56,2.56,0,0,1,.46-.12l.54-.08.55,0a5.41,5.41,0,0,1,1.73.13,1.62,1.62,0,0,1,.7.44,1.46,1.46,0,0,1,.31.69,5.1,5.1,0,0,1,.07.91v2.32a1.91,1.91,0,0,0,0,.28.34.34,0,0,0,.06.16.36.36,0,0,0,.12.08l.23,0a.44.44,0,0,1,.18,0,.16.16,0,0,1,0,.13v.51c0,.13-.1.22-.29.25l-.28,0-.28,0a1.25,1.25,0,0,1-.68-.16.82.82,0,0,1-.35-.57Zm-.07-2h-1.46a1.1,1.1,0,0,0-.72.21,1,1,0,0,0-.27.8.78.78,0,0,0,.16.55.89.89,0,0,0,.59.15,2.27,2.27,0,0,0,.42,0,3.81,3.81,0,0,0,.45-.13l.45-.19c.14-.07.27-.13.38-.2Z"/><path class="cls-2" d="M124,32v4.57c0,.15-.09.22-.26.22H123a.62.62,0,0,1-.22,0,.22.22,0,0,1-.07-.18V32h-1.65a.26.26,0,0,1-.18-.05.27.27,0,0,1,0-.2V31.2a.32.32,0,0,1,0-.19s.09-.06.19-.06h4.61c.09,0,.15,0,.17.06a.32.32,0,0,1,0,.19v.59a.32.32,0,0,1,0,.2.26.26,0,0,1-.18.05Z"/><path class="cls-2" d="M127.91,34.25a3,3,0,0,0,.1.75,1.12,1.12,0,0,0,.27.48,1,1,0,0,0,.44.24,2.38,2.38,0,0,0,.64.08c.21,0,.47,0,.77,0l.79-.09a.52.52,0,0,1,.23,0s.08.09.09.2l.07.39a.41.41,0,0,1,0,.22c0,.06-.09.11-.2.16a3.08,3.08,0,0,1-.42.12,4,4,0,0,1-.5.09,4.78,4.78,0,0,1-.53.06l-.48,0a3.11,3.11,0,0,1-1.38-.26A1.81,1.81,0,0,1,127,36a2.38,2.38,0,0,1-.37-1,7.11,7.11,0,0,1-.09-1.14,7,7,0,0,1,.07-1,2.93,2.93,0,0,1,.33-1,2.13,2.13,0,0,1,.77-.78,2.53,2.53,0,0,1,1.39-.32,3,3,0,0,1,1.3.24,1.92,1.92,0,0,1,.77.62,2.16,2.16,0,0,1,.38.86,5.36,5.36,0,0,1,.12,1,1,1,0,0,1-.11.52.5.5,0,0,1-.48.21Zm1.2-2.33a1.31,1.31,0,0,0-.56.1.85.85,0,0,0-.35.27,1.29,1.29,0,0,0-.2.46,3.49,3.49,0,0,0-.08.6h2.37a3.08,3.08,0,0,0,0-.53,1.34,1.34,0,0,0-.18-.46.87.87,0,0,0-.36-.32A1.31,1.31,0,0,0,129.11,31.92Z"/><path class="cls-2" d="M137.6,31c.19,0,.28.09.28.26v5.38a.3.3,0,0,1,0,.18.25.25,0,0,1-.2.06h-.79a.25.25,0,0,1-.2-.06.22.22,0,0,1-.06-.18V32.06h-1.73l-.26,2.86a6.17,6.17,0,0,1-.14.79,1.74,1.74,0,0,1-.33.65,1.53,1.53,0,0,1-.61.43,2.72,2.72,0,0,1-1,.16.33.33,0,0,1-.22-.05.32.32,0,0,1,0-.17l0-.53a.21.21,0,0,1,0-.15.31.31,0,0,1,.16-.09,1.94,1.94,0,0,0,.46-.14.89.89,0,0,0,.3-.24,1.23,1.23,0,0,0,.19-.43,6,6,0,0,0,.11-.71l.29-2.8a.81.81,0,0,1,.23-.55,1.08,1.08,0,0,1,.61-.14Z"/><path class="cls-2" d="M139.38,36.83c-.11,0-.18,0-.2-.06a.34.34,0,0,1,0-.19V31.16a.21.21,0,0,1,.06-.17.45.45,0,0,1,.23,0h.76c.1,0,.17,0,.2.05a.18.18,0,0,1,.06.16v2h1.45a2.86,2.86,0,0,1,1,.17,1.6,1.6,0,0,1,.64.43,1.48,1.48,0,0,1,.33.6,2.22,2.22,0,0,1,.1.67,1.81,1.81,0,0,1-.17.8,1.91,1.91,0,0,1-.47.58,2,2,0,0,1-.7.34,3,3,0,0,1-.87.12ZM142.75,35a.8.8,0,0,0-.2-.56,1,1,0,0,0-.72-.21h-1.38v1.55h1.32a1.19,1.19,0,0,0,.71-.2A.67.67,0,0,0,142.75,35Z"/><path class="cls-2" d="M150.08,36.76a.25.25,0,0,1-.21.07h-.77c-.19,0-.28-.09-.28-.25V34.26h-2.55v2.32a.24.24,0,0,1-.06.18c0,.05-.1.07-.2.07h-.78a.23.23,0,0,1-.26-.25V31.21a.23.23,0,0,1,.26-.26H146c.1,0,.17,0,.2.07a.29.29,0,0,1,.06.19v2h2.55v-2c0-.17.09-.26.28-.26h.77a.25.25,0,0,1,.21.07.36.36,0,0,1,0,.19v5.37A.3.3,0,0,1,150.08,36.76Z"/><path class="cls-2" d="M151.62,36.83c-.11,0-.18,0-.2-.06a.34.34,0,0,1,0-.19v-5.4a.22.22,0,0,1,.06-.18.36.36,0,0,1,.23-.05h.76a.3.3,0,0,1,.2.05.24.24,0,0,1,.06.18v1.94h1.45a2.86,2.86,0,0,1,1,.17,1.6,1.6,0,0,1,.64.43,1.48,1.48,0,0,1,.33.6,2.22,2.22,0,0,1,.1.67,1.81,1.81,0,0,1-.17.8,1.91,1.91,0,0,1-.47.58,2,2,0,0,1-.7.34,3,3,0,0,1-.87.12ZM155,35a.8.8,0,0,0-.2-.56,1,1,0,0,0-.72-.21h-1.38v1.55H154a1.19,1.19,0,0,0,.71-.2A.67.67,0,0,0,155,35Zm3.23,1.65c0,.15-.09.22-.27.22h-.78a.57.57,0,0,1-.22,0,.22.22,0,0,1-.06-.18V31.19c0-.16.09-.24.28-.24H158q.27,0,.27.24Z"/><path class="cls-2" d="M160.71,34.25a3,3,0,0,0,.11.75,1.12,1.12,0,0,0,.27.48.94.94,0,0,0,.44.24,2.38,2.38,0,0,0,.64.08c.21,0,.47,0,.76,0l.8-.09a.52.52,0,0,1,.23,0s.07.09.09.2l.07.39a.41.41,0,0,1,0,.22c0,.06-.09.11-.2.16a3.08,3.08,0,0,1-.42.12,3.86,3.86,0,0,1-.51.09,4.6,4.6,0,0,1-.52.06l-.48,0a3.11,3.11,0,0,1-1.38-.26,1.9,1.9,0,0,1-.8-.67,2.52,2.52,0,0,1-.36-1,7.11,7.11,0,0,1-.09-1.14,7,7,0,0,1,.07-1,2.93,2.93,0,0,1,.33-1,2.13,2.13,0,0,1,.77-.78,2.52,2.52,0,0,1,1.38-.32,3.07,3.07,0,0,1,1.31.24,1.92,1.92,0,0,1,.77.62,2.31,2.31,0,0,1,.38.86,5.34,5.34,0,0,1,.11,1,.91.91,0,0,1-.11.52.5.5,0,0,1-.48.21Zm1.2-2.33a1.29,1.29,0,0,0-.55.1.85.85,0,0,0-.35.27,1.29,1.29,0,0,0-.2.46,3.49,3.49,0,0,0-.08.6h2.37a2.32,2.32,0,0,0,0-.53,1.33,1.33,0,0,0-.17-.46.87.87,0,0,0-.36-.32A1.35,1.35,0,0,0,161.91,31.92Z"/><path class="cls-2" d="M172.62,31.2c0-.17.09-.25.27-.25h.77a.28.28,0,0,1,.2.05.25.25,0,0,1,.07.2v4.5l.43,0a.2.2,0,0,1,.18.1.46.46,0,0,1,0,.21l-.12,2c0,.13,0,.21-.05.24a.17.17,0,0,1-.15.05h-.66c-.09,0-.15,0-.18-.05a.37.37,0,0,1-.06-.21l0-1.26h-4.11a.24.24,0,0,1-.27-.27V31.2c0-.17.09-.25.27-.25H170a.22.22,0,0,1,.25.25v4.51h2.39Z"/><path class="cls-2" d="M176.72,34.25a3,3,0,0,0,.1.75,1.12,1.12,0,0,0,.27.48,1,1,0,0,0,.45.24,2.3,2.3,0,0,0,.63.08c.22,0,.48,0,.77,0l.79-.09a.56.56,0,0,1,.24,0s.07.09.09.2l.07.39a.4.4,0,0,1,0,.22c0,.06-.08.11-.19.16a3.08,3.08,0,0,1-.42.12,3.86,3.86,0,0,1-.51.09,4.52,4.52,0,0,1-.53.06l-.48,0a3.17,3.17,0,0,1-1.38-.26,1.93,1.93,0,0,1-.79-.67,2.52,2.52,0,0,1-.36-1,7.11,7.11,0,0,1-.09-1.14,7,7,0,0,1,.07-1,2.93,2.93,0,0,1,.33-1,2.13,2.13,0,0,1,.77-.78,2.52,2.52,0,0,1,1.38-.32,3,3,0,0,1,1.3.24,2,2,0,0,1,.78.62,2.31,2.31,0,0,1,.38.86,6.4,6.4,0,0,1,.11,1,.91.91,0,0,1-.11.52.5.5,0,0,1-.48.21Zm1.2-2.33a1.26,1.26,0,0,0-.55.1.85.85,0,0,0-.35.27,1.13,1.13,0,0,0-.2.46,4.77,4.77,0,0,0-.09.6h2.38a3.07,3.07,0,0,0-.05-.53,1.33,1.33,0,0,0-.17-.46,1,1,0,0,0-.36-.32A1.35,1.35,0,0,0,177.92,31.92Z"/><path class="cls-2" d="M186.66,36.76c0,.05-.1.07-.21.07h-.76c-.19,0-.28-.09-.28-.25V34.26h-2.56v2.32a.24.24,0,0,1,0,.18.23.23,0,0,1-.2.07h-.78a.23.23,0,0,1-.26-.25V31.21a.23.23,0,0,1,.26-.26h.78a.23.23,0,0,1,.2.07.29.29,0,0,1,0,.19v2h2.56v-2c0-.17.09-.26.28-.26h.76c.11,0,.18,0,.21.07a.29.29,0,0,1,.06.19v5.37A.24.24,0,0,1,186.66,36.76Z"/><path class="cls-2" d="M190.67,32v4.57c0,.15-.09.22-.27.22h-.75a.57.57,0,0,1-.22,0c-.05,0-.07-.09-.07-.18V32H187.7a.26.26,0,0,1-.18-.05.32.32,0,0,1-.05-.2V31.2a.31.31,0,0,1,.05-.19s.09-.06.18-.06h4.61q.15,0,.18.06a.41.41,0,0,1,0,.19v.59a.32.32,0,0,1-.05.2.26.26,0,0,1-.18.05Z"/><path class="cls-2" d="M198.49,33.85a7.29,7.29,0,0,1-.11,1.31,2.5,2.5,0,0,1-.38,1,1.6,1.6,0,0,1-.73.6,2.85,2.85,0,0,1-1.17.21,4.6,4.6,0,0,1-.69-.06,4.4,4.4,0,0,1-.81-.21h0V38.8a.27.27,0,0,1,0,.16.2.2,0,0,1-.19.08h-.85c-.1,0-.16,0-.19-.06a.4.4,0,0,1,0-.18V31.19a.21.21,0,0,1,.23-.24h.85a.22.22,0,0,1,.18.06.48.48,0,0,1,0,.18v.36l0,0c.11-.07.23-.15.38-.23s.31-.16.48-.24a4.4,4.4,0,0,1,.51-.18,2.41,2.41,0,0,1,.53-.07,1.88,1.88,0,0,1,1,.22,1.53,1.53,0,0,1,.61.6,2.79,2.79,0,0,1,.31.95A7.63,7.63,0,0,1,198.49,33.85Zm-1.36,0a5.81,5.81,0,0,0,0-.92,1.43,1.43,0,0,0-.17-.54.57.57,0,0,0-.3-.26,1,1,0,0,0-.41-.07,1.62,1.62,0,0,0-.41.06l-.45.14a4.08,4.08,0,0,0-.42.17l-.33.17v3a4,4,0,0,0,.74.16,4.72,4.72,0,0,0,.64,0,1.47,1.47,0,0,0,.55-.09.84.84,0,0,0,.36-.32,1.76,1.76,0,0,0,.19-.61A6.08,6.08,0,0,0,197.13,33.84Z"/><path class="cls-2" d="M199.77,36.83c-.11,0-.18,0-.2-.06a.45.45,0,0,1,0-.19v-5.4a.22.22,0,0,1,.07-.18.33.33,0,0,1,.22-.05h.77a.32.32,0,0,1,.2.05.3.3,0,0,1,.05.18v1.94h1.45a2.79,2.79,0,0,1,1,.17,1.64,1.64,0,0,1,.65.43,1.48,1.48,0,0,1,.33.6,2.59,2.59,0,0,1,.1.67,1.69,1.69,0,0,1-.18.8,1.65,1.65,0,0,1-.47.58,1.86,1.86,0,0,1-.69.34,3,3,0,0,1-.87.12ZM203.15,35a.76.76,0,0,0-.21-.56,1,1,0,0,0-.72-.21h-1.38v1.55h1.32a1.2,1.2,0,0,0,.72-.2A.67.67,0,0,0,203.15,35Zm3.22,1.65c0,.15-.09.22-.26.22h-.79a.48.48,0,0,1-.21,0c-.05,0-.07-.09-.07-.18V31.19c0-.16.09-.24.28-.24h.79c.17,0,.26.08.26.24Z"/></g><g class="cls-1"><path class="cls-2" d="M75.8,46.76l.39.05a.23.23,0,0,1,.18.1.34.34,0,0,1,0,.17s0,.08,0,.1,0,.06,0,.09c0,.31,0,.63-.05.94s0,.62,0,.93a.37.37,0,0,1-.08.24.21.21,0,0,1-.16.06h-.63a.19.19,0,0,1-.17-.06.41.41,0,0,1-.06-.22l0-1.33H71l-.11,1.33a.77.77,0,0,1-.06.22.14.14,0,0,1-.13.06H70q-.12,0-.15-.06a.52.52,0,0,1,0-.23c0-.35,0-.69,0-1s0-.7,0-1a.22.22,0,0,1,.07-.19A.38.38,0,0,1,70,46.8l.32,0a1.26,1.26,0,0,0,.53-.7,6.7,6.7,0,0,0,.28-1.2l.37-2.39a.57.57,0,0,1,.25-.39A1,1,0,0,1,72.3,42h3.18a.33.33,0,0,1,.25.09.35.35,0,0,1,.07.23Zm-1.3-3.7H72.66c-.08.64-.15,1.16-.21,1.58s-.12.76-.17,1a4.88,4.88,0,0,1-.18.64,2.06,2.06,0,0,1-.21.42H74.5Z"/><path class="cls-2" d="M82.36,42a.24.24,0,0,1,.27.26v5.38a.24.24,0,0,1,0,.18.25.25,0,0,1-.2.06h-.79a.27.27,0,0,1-.2-.06s0-.09,0-.18V43.06H79.61l-.27,2.86a6.17,6.17,0,0,1-.14.79,1.59,1.59,0,0,1-.32.65,1.57,1.57,0,0,1-.62.43,2.68,2.68,0,0,1-1,.16c-.12,0-.19,0-.21-.05a.31.31,0,0,1,0-.17l0-.53a.21.21,0,0,1,0-.15.36.36,0,0,1,.17-.09,2,2,0,0,0,.45-.14.89.89,0,0,0,.3-.24,1.23,1.23,0,0,0,.19-.43,6,6,0,0,0,.11-.71l.29-2.8a.81.81,0,0,1,.23-.55,1.08,1.08,0,0,1,.61-.14Z"/><path class="cls-2" d="M88.64,41.94c.12,0,.19,0,.23.05a.25.25,0,0,1,.06.19v5.4c0,.16-.09.24-.29.24h-.75q-.17,0-.21-.06a.24.24,0,0,1-.06-.18v-2H86.41a.89.89,0,0,0-.52.19,1.56,1.56,0,0,0-.38.68l-.38,1.17a.35.35,0,0,1-.12.19.38.38,0,0,1-.24.06H84c-.12,0-.18,0-.2-.07a.33.33,0,0,1,0-.2l.42-1.28a4.72,4.72,0,0,1,.28-.63,1,1,0,0,1,.41-.41,1.2,1.2,0,0,1-.43-.26,1.31,1.31,0,0,1-.27-.36,1.47,1.47,0,0,1-.13-.42,3,3,0,0,1,0-.42,1.77,1.77,0,0,1,.17-.79,1.74,1.74,0,0,1,.46-.58,1.91,1.91,0,0,1,.68-.35,2.76,2.76,0,0,1,.82-.12Zm-3.32,1.85a.66.66,0,0,0,.21.53,1,1,0,0,0,.71.2h1.38V43H86.3a1.18,1.18,0,0,0-.7.19A.64.64,0,0,0,85.32,43.79Z"/><path class="cls-2" d="M99.37,46.76l.39.05a.27.27,0,0,1,.18.1.33.33,0,0,1,0,.17v.1a.28.28,0,0,0,0,.09c0,.31,0,.63,0,.94l-.06.93a.32.32,0,0,1-.07.24.22.22,0,0,1-.17.06H99c-.09,0-.15,0-.17-.06a.41.41,0,0,1-.06-.22l0-1.33H94.6l-.11,1.33a.77.77,0,0,1-.06.22.15.15,0,0,1-.13.06h-.7a.18.18,0,0,1-.16-.06.55.55,0,0,1,0-.23c0-.35,0-.69,0-1s0-.7,0-1a.22.22,0,0,1,.07-.19.34.34,0,0,1,.17-.08l.32,0a1.26,1.26,0,0,0,.53-.7,7.7,7.7,0,0,0,.28-1.2l.37-2.39a.6.6,0,0,1,.24-.39,1,1,0,0,1,.54-.12h3.18a.3.3,0,0,1,.24.09.31.31,0,0,1,.08.23Zm-1.31-3.7H96.23c-.08.64-.15,1.16-.21,1.58s-.12.76-.18,1a3.81,3.81,0,0,1-.17.64,2.06,2.06,0,0,1-.21.42h2.6Z"/><path class="cls-2" d="M102.32,45.25a3,3,0,0,0,.11.75,1.12,1.12,0,0,0,.27.48.94.94,0,0,0,.44.24,2.38,2.38,0,0,0,.64.08c.21,0,.47,0,.76,0l.8-.09a.53.53,0,0,1,.23,0s.07.09.09.2l.07.39a.41.41,0,0,1,0,.22c0,.06-.09.11-.2.16a3.08,3.08,0,0,1-.42.12,3.86,3.86,0,0,1-.51.09,4.6,4.6,0,0,1-.52.06l-.48,0a3.11,3.11,0,0,1-1.38-.26,1.9,1.9,0,0,1-.8-.67,2.52,2.52,0,0,1-.36-1,7.11,7.11,0,0,1-.09-1.14,7,7,0,0,1,.07-1,2.93,2.93,0,0,1,.33-1,2.13,2.13,0,0,1,.77-.78,2.52,2.52,0,0,1,1.38-.32,3.07,3.07,0,0,1,1.31.24,1.92,1.92,0,0,1,.77.62,2.31,2.31,0,0,1,.38.86,5.34,5.34,0,0,1,.11,1A.91.91,0,0,1,106,45a.5.5,0,0,1-.48.21Zm1.2-2.33a1.29,1.29,0,0,0-.55.1.85.85,0,0,0-.35.27,1.29,1.29,0,0,0-.2.46,3.49,3.49,0,0,0-.08.6h2.37a3.07,3.07,0,0,0,0-.53,1.33,1.33,0,0,0-.17-.46.87.87,0,0,0-.36-.32A1.35,1.35,0,0,0,103.52,42.92Z"/><path class="cls-2" d="M110,43v4.57c0,.15-.08.22-.26.22H109a.56.56,0,0,1-.21,0s-.07-.09-.07-.18V43H107a.26.26,0,0,1-.18,0,.32.32,0,0,1,0-.2V42.2a.41.41,0,0,1,0-.19s.09-.06.19-.06h4.61a.22.22,0,0,1,.18.06.44.44,0,0,1,0,.19v.59a.33.33,0,0,1,0,.2.3.3,0,0,1-.18,0Z"/><path class="cls-2" d="M114,45.25a3,3,0,0,0,.11.75,1,1,0,0,0,.27.48.9.9,0,0,0,.44.24,2.32,2.32,0,0,0,.64.08c.21,0,.47,0,.76,0l.8-.09a.52.52,0,0,1,.23,0s.07.09.09.2l.07.39a.54.54,0,0,1,0,.22c0,.06-.09.11-.2.16a3.08,3.08,0,0,1-.42.12,3.86,3.86,0,0,1-.51.09,4.6,4.6,0,0,1-.52.06l-.48,0a3.11,3.11,0,0,1-1.38-.26,1.9,1.9,0,0,1-.8-.67,2.52,2.52,0,0,1-.36-1,7.11,7.11,0,0,1-.09-1.14,7,7,0,0,1,.07-1,2.93,2.93,0,0,1,.33-1,2.13,2.13,0,0,1,.77-.78,2.52,2.52,0,0,1,1.38-.32,3.07,3.07,0,0,1,1.31.24,1.92,1.92,0,0,1,.77.62,2.31,2.31,0,0,1,.38.86,5.34,5.34,0,0,1,.11,1,.91.91,0,0,1-.11.52.5.5,0,0,1-.48.21Zm1.2-2.33a1.29,1.29,0,0,0-.55.1.85.85,0,0,0-.35.27,1.29,1.29,0,0,0-.2.46,3.49,3.49,0,0,0-.08.6h2.37a2.32,2.32,0,0,0,0-.53,1.33,1.33,0,0,0-.17-.46.94.94,0,0,0-.36-.32A1.35,1.35,0,0,0,115.22,42.92Z"/><path class="cls-2" d="M119,42.21a.3.3,0,0,1,.06-.2.25.25,0,0,1,.2-.06H120c.12,0,.19,0,.22.07a.36.36,0,0,1,0,.19v3.51h0l1.58-2.14L123,42.16l.15-.15a.45.45,0,0,1,.26-.06H124a.22.22,0,0,1,.2.08.27.27,0,0,1,.06.17v5.38c0,.16-.09.25-.28.25h-.75c-.19,0-.28-.09-.28-.25V43.9h0q-.42.59-.84,1.14l-.84,1.14-.53.72-.54.71a.61.61,0,0,1-.16.16.48.48,0,0,1-.26.06h-.51a.25.25,0,0,1-.2-.06.27.27,0,0,1-.06-.19Zm2.64-.81a2.38,2.38,0,0,1-1.14-.31,2,2,0,0,1-.85-.94,1.31,1.31,0,0,1-.08-.21.15.15,0,0,1,.06-.19l.32-.26a.17.17,0,0,1,.17,0,.42.42,0,0,1,.14.11,3.5,3.5,0,0,0,.66.64,1.29,1.29,0,0,0,.74.2,1.36,1.36,0,0,0,.36,0,1,1,0,0,0,.31-.15,3.5,3.5,0,0,0,.31-.27l.35-.37a.21.21,0,0,1,.3-.06l.32.2a.16.16,0,0,1,.08.2l-.09.22a2.34,2.34,0,0,1-.84,1A2.11,2.11,0,0,1,121.64,41.4Z"/><path class="cls-2" d="M134.28,44.79a7.9,7.9,0,0,1-.07,1.07,2.46,2.46,0,0,1-.33,1,2,2,0,0,1-.79.76,3,3,0,0,1-1.46.29,2.8,2.8,0,0,1-1.41-.29,2,2,0,0,1-.77-.76,2.61,2.61,0,0,1-.32-1,9.87,9.87,0,0,1-.06-1.07,6.49,6.49,0,0,1,.08-.93,2.56,2.56,0,0,1,.34-1,2.24,2.24,0,0,1,.77-.76,2.7,2.7,0,0,1,1.37-.3,3.21,3.21,0,0,1,1.4.26,2.06,2.06,0,0,1,.79.69,2.44,2.44,0,0,1,.37,1A6.2,6.2,0,0,1,134.28,44.79Zm-1.33.09a6.78,6.78,0,0,0,0-.84,1.64,1.64,0,0,0-.19-.59,1,1,0,0,0-.4-.35,1.56,1.56,0,0,0-.66-.12,1.37,1.37,0,0,0-.62.12.88.88,0,0,0-.38.36,1.64,1.64,0,0,0-.19.59,5.77,5.77,0,0,0,0,1.66,1.58,1.58,0,0,0,.18.59.89.89,0,0,0,.37.35,1.44,1.44,0,0,0,.63.12,1.75,1.75,0,0,0,.66-.11.88.88,0,0,0,.41-.35,1.58,1.58,0,0,0,.19-.59A6.78,6.78,0,0,0,133,44.88Z"/><path class="cls-2" d="M138.29,43v4.57c0,.15-.09.22-.27.22h-.75a.57.57,0,0,1-.22,0c-.05,0-.07-.09-.07-.18V43h-1.66a.28.28,0,0,1-.18,0,.33.33,0,0,1,0-.2V42.2a.32.32,0,0,1,0-.19.22.22,0,0,1,.18-.06h4.61q.15,0,.18.06a.41.41,0,0,1,0,.19v.59a.32.32,0,0,1-.05.2.26.26,0,0,1-.18,0Z"/><path class="cls-2" d="M149.5,47.61a.25.25,0,0,1-.05.16s-.08.06-.17.06h-.9c-.14,0-.2-.07-.2-.21V45.85h-3.77a.31.31,0,0,1-.17-.05.18.18,0,0,1-.07-.17v-.68a.91.91,0,0,1,0-.17.44.44,0,0,1,.11-.18L148,40.06a.48.48,0,0,1,.17-.13.49.49,0,0,1,.23,0h.86a.16.16,0,0,1,.15.06.18.18,0,0,1,.05.12v4.6h.88c.13,0,.2.06.2.19v.78a.18.18,0,0,1-.2.21h-.88Zm-1.35-5.93-2.41,3v0h2.46v-3Z"/><path class="cls-2" d="M160.64,46.76l.39.05a.25.25,0,0,1,.18.1.34.34,0,0,1,0,.17s0,.08,0,.1a.28.28,0,0,0,0,.09c0,.31,0,.63-.05.94l-.06.93a.32.32,0,0,1-.07.24.22.22,0,0,1-.17.06h-.62c-.09,0-.15,0-.17-.06a.41.41,0,0,1-.06-.22l0-1.33h-4.12l-.11,1.33a.77.77,0,0,1-.06.22.14.14,0,0,1-.13.06h-.7a.18.18,0,0,1-.16-.06.8.8,0,0,1,0-.23c0-.35,0-.69,0-1s0-.7,0-1a.22.22,0,0,1,.07-.19.34.34,0,0,1,.17-.08l.32,0a1.26,1.26,0,0,0,.53-.7,7.7,7.7,0,0,0,.28-1.2l.37-2.39a.6.6,0,0,1,.24-.39,1,1,0,0,1,.54-.12h3.18a.3.3,0,0,1,.24.09.31.31,0,0,1,.08.23Zm-1.3-3.7H157.5c-.08.64-.15,1.16-.21,1.58s-.12.76-.18,1a3.81,3.81,0,0,1-.17.64,2.06,2.06,0,0,1-.21.42h2.61Z"/><path class="cls-2" d="M167.45,44.79a9.93,9.93,0,0,1-.07,1.07,2.46,2.46,0,0,1-.33,1,2,2,0,0,1-.79.76,3,3,0,0,1-1.46.29,2.8,2.8,0,0,1-1.41-.29,1.94,1.94,0,0,1-.77-.76,2.45,2.45,0,0,1-.32-1,9.87,9.87,0,0,1-.06-1.07,5.31,5.31,0,0,1,.08-.93,2.56,2.56,0,0,1,.34-1,2.16,2.16,0,0,1,.77-.76,2.7,2.7,0,0,1,1.37-.3,3.16,3.16,0,0,1,1.39.26,2,2,0,0,1,.8.69,2.44,2.44,0,0,1,.37,1A6.2,6.2,0,0,1,167.45,44.79Zm-1.34.09a7,7,0,0,0,0-.84,1.64,1.64,0,0,0-.2-.59.89.89,0,0,0-.39-.35,1.56,1.56,0,0,0-.66-.12,1.41,1.41,0,0,0-.63.12.86.86,0,0,0-.37.36,1.64,1.64,0,0,0-.2.59,6.91,6.91,0,0,0,0,1.66,1.78,1.78,0,0,0,.19.59.89.89,0,0,0,.37.35,1.41,1.41,0,0,0,.63.12,1.75,1.75,0,0,0,.66-.11.86.86,0,0,0,.4-.35,1.58,1.58,0,0,0,.2-.59A7,7,0,0,0,166.11,44.88Z"/><path class="cls-2" d="M173.17,47.83c-.14,0-.2-.07-.2-.21v-.76c0-.14.06-.21.2-.21h1.37V41.27h-1.26a.34.34,0,0,1-.17,0s-.05-.07-.05-.15v-.4a.48.48,0,0,1,0-.18s.06-.09.14-.12l1.1-.41a1.11,1.11,0,0,1,.29-.1l.3,0h.71a.25.25,0,0,1,.2.06.3.3,0,0,1,0,.18v6.55h1.49a.18.18,0,0,1,.2.21v.76a.18.18,0,0,1-.2.21Z"/><path class="cls-2" d="M184.23,47.61a.25.25,0,0,1,0,.16.19.19,0,0,1-.17.06h-.9a.19.19,0,0,1-.21-.21V45.85h-3.76a.31.31,0,0,1-.17-.05.18.18,0,0,1-.07-.17v-.68a.91.91,0,0,1,0-.17.44.44,0,0,1,.11-.18l3.75-4.53a.48.48,0,0,1,.17-.13.49.49,0,0,1,.23,0H184a.17.17,0,0,1,.19.18v4.6h.89a.17.17,0,0,1,.19.19v.78c0,.14-.06.21-.19.21h-.89Zm-1.34-5.93-2.41,3v0h2.46v-3Z"/><path class="cls-2" d="M194.71,42c.18,0,.28.09.28.26v5.38a.3.3,0,0,1-.05.18s-.1.06-.21.06h-.79a.28.28,0,0,1-.2-.06.26.26,0,0,1-.05-.18V43.06H192l-.26,2.86a4.81,4.81,0,0,1-.15.79,1.59,1.59,0,0,1-.32.65,1.5,1.5,0,0,1-.62.43,2.66,2.66,0,0,1-1,.16c-.12,0-.2,0-.22-.05a.43.43,0,0,1-.05-.17l0-.53a.28.28,0,0,1,0-.15.43.43,0,0,1,.17-.09,2.1,2.1,0,0,0,.46-.14.89.89,0,0,0,.3-.24,1.07,1.07,0,0,0,.18-.43,5.71,5.71,0,0,0,.12-.71l.28-2.8a.81.81,0,0,1,.24-.55,1,1,0,0,1,.6-.14Z"/><path class="cls-2" d="M197.65,45.25a3,3,0,0,0,.1.75,1.12,1.12,0,0,0,.27.48,1,1,0,0,0,.45.24,2.25,2.25,0,0,0,.63.08c.22,0,.47,0,.77,0l.79-.09a.58.58,0,0,1,.24,0s.07.09.09.2l.07.39a.52.52,0,0,1,0,.22c0,.06-.08.11-.2.16a3.08,3.08,0,0,1-.42.12,3.71,3.71,0,0,1-.5.09,4.78,4.78,0,0,1-.53.06l-.48,0a3.17,3.17,0,0,1-1.38-.26,1.87,1.87,0,0,1-.79-.67,2.53,2.53,0,0,1-.37-1,6.58,6.58,0,0,1,0-2.11,2.56,2.56,0,0,1,.33-1,2.1,2.1,0,0,1,.76-.78,2.56,2.56,0,0,1,1.39-.32,3,3,0,0,1,1.3.24,2,2,0,0,1,.78.62,2.14,2.14,0,0,1,.37.86,5.36,5.36,0,0,1,.12,1,.91.91,0,0,1-.11.52.5.5,0,0,1-.48.21Zm1.2-2.33a1.26,1.26,0,0,0-.55.1.88.88,0,0,0-.36.27,1.27,1.27,0,0,0-.19.46,4.77,4.77,0,0,0-.09.6H200a3.07,3.07,0,0,0,0-.53,1.33,1.33,0,0,0-.17-.46,1,1,0,0,0-.36-.32A1.35,1.35,0,0,0,198.85,42.92Z"/><path class="cls-2" d="M205.33,43v4.57c0,.15-.09.22-.26.22h-.76a.57.57,0,0,1-.22,0,.22.22,0,0,1-.07-.18V43h-1.65a.26.26,0,0,1-.18,0,.27.27,0,0,1-.05-.2V42.2a.32.32,0,0,1,0-.19s.09-.06.19-.06H207q.15,0,.18.06a.32.32,0,0,1,0,.19v.59a.32.32,0,0,1-.05.2.26.26,0,0,1-.18,0Z"/></g></g><g id="Надпись"><path id="Combined-Shape" class="cls-3" d="M181.44,2.06c.58,0,.93.19.93.92V16.59c0,5-4.65,6.87-8.43,6.87s-8.39-1.88-8.39-6.87V3c0-.73.35-.92.92-.92h3.15c.57,0,.92.19.92.92V15.89c0,2,1.3,3.15,3.4,3.15s3.43-1.15,3.43-3.15V3c0-.73.35-.92.93-.92Zm24.13,0c.73,0,.93.35.93.92V22.06c0,.73-.35.92-.93.92h-3c-.57,0-.92-.19-.92-.92V11.28l-3.18,5.56a1.15,1.15,0,0,1-.92.67h-1.59a1.1,1.1,0,0,1-.89-.67l-3.21-5.56V22.06c0,.73-.35.92-.92.92h-3.15c-.57,0-.92-.19-.92-.92V3c0-.57.19-.92.92-.92h3.15c1.08,0,1.2.7,1.46,1.08l4.35,7.82,4.39-7.82c.22-.38.38-1.08,1.43-1.08Z"/><path id="STARTum" class="cls-2" d="M81.49,10.84c2.29.69,5.66,1.62,5.66,5.94,0,4.51-3.56,6.68-8.46,6.68-4,0-8.55-2.29-8.55-6.74,0-.73.19-.89.92-.89h3.09c.73,0,1.08.09,1.14.89A2.16,2.16,0,0,0,75.9,18,4.18,4.18,0,0,0,79,19.07c1.72,0,3.12-.38,3.12-2.16S79.3,15.1,76.6,14.24c-3.22-1-6.17-2.29-6.17-6.33s3.75-6.17,7.72-6.33c4,0,8.46,1.85,8.46,6,0,.77-.19.89-.92.89H82.57c-.6,0-.7-.44-.86-.85a2.5,2.5,0,0,0-.66-1,4.27,4.27,0,0,0-2.71-.86c-1,0-2.79.42-2.79,1.85C75.55,9.63,80.22,10.33,81.49,10.84ZM105,2.06c.73,0,.92.35.92.92V5.62c0,.57-.19.92-.92.92h-4.87V22.06c0,.73-.35.92-.92.92H96.08c-.57,0-.92-.19-.92-.92V6.54H90.27c-.74,0-.93-.35-.93-.92V3c0-.57.19-.92.93-.92Zm18.53,20c.16.38.16.89-.54.89h-3.34c-.7,0-1-.19-1.21-.95l-.89-2.52h-7.78L108.9,22c-.26.76-.51.95-1.21.95h-3.34c-.7,0-.7-.51-.54-.89l7.06-19a1.26,1.26,0,0,1,1.3-1h3c.7,0,1,.32,1.31,1Zm-12.24-7h4.77L113.7,8ZM143.52,22c.28.45.12,1-.48,1h-3.75A1.7,1.7,0,0,1,137.7,22l-3.43-5.12a2.33,2.33,0,0,1-.35-1.62V12.74c0-.57.19-.92.92-.92h.63a2.84,2.84,0,0,0,3-2.57,2.7,2.7,0,0,0-2.92-2.71h-4.23V22.06c0,.73-.35.92-.92.92h-3.15c-.57,0-.89-.19-.89-.92V3c0-.57.16-.92.89-.92h8c3.47,0,5,.7,6.33,2a6.89,6.89,0,0,1,1.84,5A6.84,6.84,0,0,1,139,15.45ZM161.7,2.06c.73,0,.92.35.92.92V5.62c0,.57-.19.92-.92.92h-4.86V22.06c0,.73-.35.92-.92.92h-3.15c-.57,0-.92-.19-.92-.92V6.54H147c-.73,0-.92-.35-.92-.92V3c0-.57.19-.92.92-.92Z"/></g><g id="Logo"><path id="Combined-Shape-2" data-name="Combined-Shape" class="cls-3" d="M38.47,7.55a4.94,4.94,0,1,1,4.94,4.93A4.94,4.94,0,0,1,38.47,7.55Zm2.74,13.76,3.86,5L57.9,43,42.14,38.24,39.78,43,34.39,53.87l-.9-12.94-1-14L31.43,11.65,30.61,0l6.56,12.23,1.3,2.42,20.71-.17Z"/><path id="Combined-Shape-3" data-name="Combined-Shape" class="cls-2" d="M20.71,7.55a4.94,4.94,0,1,1-4.94-4.94A4.93,4.93,0,0,1,20.71,7.55ZM22,12.23,28.57,0l-.82,11.65L26.67,27l-1,14-.91,12.94L19.39,43,17,38.24,1.28,43,14.11,26.33l3.85-5L0,14.48l20.71.17Z"/></g></g></g></g></g></g></svg>