<svg xmlns="http://www.w3.org/2000/svg" viewBox="0 0 512 492.92"><defs><style>.cls-1{fill:#0b8ed9;}</style></defs><title>wis-icon-1</title><g id="Слой_2" data-name="Слой 2"><g id="Capa_1" data-name="Capa 1"><path class="cls-1" d="M510.91,220.54c-7.8-28.7-54.1-27-71.8-7.9-5.7,1.6-11.6,4.7-16.3,6.3-13.8,4.6-26.5,11.6-39.2,18.6-1.6.9-3.2,1.7-4.9,2.6-9.2,4.2-18.3,8.6-27.5,12.9l-.6.3c-1.1-5.7.1-12.7.3-18.2.2-7.1.1-14.2-.2-21.3-.6-14.1-1.1-28.3-.9-42.5.4-27.2,2.7-55.4,8.2-82.1a335.09,335.09,0,0,1,9.6-38.3c2.8-8.5,9.6-20.2,6.6-29.4-5.8-17.6-40.3-11.7-53.5-10.8-26.4,1.8-53.2.4-79.6-1.4-28.2-1.9-56.3-2.4-84.4-5.2S99.41-.86,71,.34c-9.4.4-20.9-.4-28.7,5.7s-11.4,16.2-14.5,25C10.11,83,4,138.84,1.41,193.44c-2.7,55.1-2.6,110.4,10.2,164.4,6.3,26.5,15.7,51.9,25.1,77.4,7.4,20,17.5,40.7,38.4,49,21.4,8.5,47.5,8,70.2,8.5,28.9.7,57.9-.8,86.8-3,30.7-2.4,61.7-4.1,92.3-7.1,15.4-1.5,30.9-3.7,46.2-6.3,10.2-1.7,26.6-3.7,32.7-13.6,5.4-8.7-.5-18.2-4.1-26.4-4.7-10.5-9.8-21-14.2-31.7-9.6-23.6-10-50.6-20.8-73.8,10.4-4.8,20.7-9.6,31.1-14.4a291.12,291.12,0,0,0,37.2-20.3,157.79,157.79,0,0,0,16.7-11.8c6.8-5.9,15.6-8,23.7-11.6,8.3-3.8,15.9-9.5,23-15.2C507,248.64,515,235.34,510.91,220.54ZM32.11,67.24c3.2-11.7,6.1-24.1,10.6-35.3,1.6-4,3.1-8.8,6.1-11.9,5.3-5.6,13.3-5,20.5-5.3,24.7-1.2,49.8.1,74.5,1.9,48.7,3.5,97.6,7.4,146.5,8.1,12.8.2,25.5-.4,38.3-.7,6.2-.1,12.6,0,18.9.3,7.9.4,12.8-.3,11,8.8-2.4,12.2-8,23.9-10.8,36.1-1.9,8.5-3.6,16.9-5.1,25.4-24.7,2.7-50.1,2.2-74.9,2.3-29,.1-57.9-.2-86.9-1.7-28.4-1.4-57-2-85.4-4.5-13.3-1.1-26.3-2.7-39.6-3.4C48,87,39.51,87,32,85.14c-1.4-.4-2.8-.7-4.1-1.1Q29.86,75.64,32.11,67.24ZM367,399.14c2.7,8.8,6.7,16.4,10.2,24.8s8.8,17.4,11,25.9c2.1,8.2-5.5,8.4-12.1,9.9-5.2,1.2-10.6,2-15.9,2.8-13.3,1.9-26.5,3.9-39.9,5.1-25.1,2.3-50.4,3.6-75.5,5.7-48.4,4-99.1,8.1-147.4.8-9.1-1.4-18.7-3.5-26.1-9.4-9.9-7.8-15.8-22.1-20.1-33.6-8.1-21.3-16.4-42.7-22.3-64.7-13-48.7-17.2-100-14.8-150.3,2-42.5,3.9-85.4,12.7-127.1a65.23,65.23,0,0,0,7,2.5c5.3,1.2,10.9,1.6,16.3,2.2,13.8,1.5,27.5,2.9,41.3,4.5,28.9,3.4,58.3,3.9,87.3,5.5s58,1.9,87,1.9c25,0,50.5.5,75.4-2-.2,1.2-.4,2.4-.5,3.6-3.5,26.9-5.9,54.4-4.7,81.5.6,13.4,1.3,26.7,1.6,40.1.2,9.6-.7,20.2,2.4,29.4-22.6,10.8-45,21.9-67.1,33.7-12.4,6.6-24.6,13-36.4,20.6-15.1,9.8-26.1,23-37,37.3-4.1,5.3-7.2,11.1-10.3,17-2.4,4.6-6.9,10.2-5.9,15.8,5.1,29,76.8-6.9,91.3-12.3,12.5-4.6,24.6-10.1,36.8-15.5,13.4-5.9,26.7-12,40-18.1,3.4,8.7,5,18.8,7.3,27.6C361.71,376,363.61,387.74,367,399.14Zm-160.1-27a14,14,0,0,0-7.8-6.5,217.8,217.8,0,0,1,16.3-25.7c.8,6.8,4.7,14,7.3,19.7,2.4,5.2,5.2,11,9.5,14.8-6.6,3.2-13.6,6.4-20.3,8.1a27.21,27.21,0,0,1-3.3.7A15.24,15.24,0,0,0,206.91,372.14ZM449,261.84c-3.7,11.6-15.5,17.7-25,24a265,265,0,0,1-33.5,18.3c-42.7,19.7-84.3,41.8-127.8,59.7-4.2,1.7-10.2,4.5-14.8,4.6-9.6.1-13.2-5.7-15.7-12.8,5.6-1.6,11.3-5.1,16.2-7.1,9.3-3.8,18-8.5,27-13,21.4-10.8,43.6-20.2,64.9-31.2s43.1-20.6,64.5-31.4c10.1-5.1,20.4-9.6,30.6-14.4,4.5-2.1,10.4-3.3,15.3-5.7A43.78,43.78,0,0,1,449,261.84Zm2.2-16.7c-4.7,4.3-16,6.5-21.9,9.3-9.9,4.7-19.8,9-29.5,13.9-20.7,10.4-41.9,20.1-62.4,30.8-19.4,10.2-39.4,19.7-59.2,29.1-9.4,4.5-18.3,9.8-27.8,14-6.6,2.9-12.8,6.7-19.2,10.1-1.4-4.2-3.2-8.9-2.4-13.2,1.3-6.7,8.2-10.1,13.5-13.5,19.6-12.7,40.1-24.2,60.7-35.3,23-12.4,46.5-24,69.8-35.9,13.1-6.7,26-13.6,38.9-20.5,7.8-4.2,24.3-12,33.6-6,4.5,2.8,5.9,9.9,5.9,17.2Zm21.6,16.7c-4.1,2.4-8.2,4.8-12.2,7.4,4-9.6,4.2-20.4,2.3-30.6-1.6-8.5-3-21.3-11.6-25.7-.1,0-.2-.1-.3-.1,2.5-1,5.1-1.9,7.7-2.8C476.81,219.14,476.81,243.74,472.81,261.84Zm30.6-29.3c-2.3,11.1-11.3,17.9-20.7,23.5,1.7-11.2,1-23.5-3.7-32.7a41.6,41.6,0,0,0-13.9-15.2,60,60,0,0,1,9.6-1.5C490.21,205.84,507,214.74,503.41,232.54Z"/><path class="cls-1" d="M80.31,126c-2.3-2.5-6.1-3.1-9.3-3.7-4.8-.8-10.6-2.7-15.6-2.4-8,.4-10.3,4.2-11.3,11.4-.5,3.2-.9,6.8-1.2,10.4a113.63,113.63,0,0,0-3.3,17.4c-.6,7,1.2,10.4,8.2,11.9,6.6,1.4,18.6,2.6,24.7-.8,6.5-3.7,6-14.6,6.8-20.8C80.21,143,85.51,131.54,80.31,126Zm-9.2,22.1c-.9,7,.3,12.9-7.4,14.9-2.2.6-13.6,1.8-15.8-.4a3.13,3.13,0,0,0,.9-1.1c2.2-5.9,2.1-10.9,2.1-17.1,0-3.7-1.2-13.1,1.8-15.8,1.3-1.1,17.9,1.1,19.8,2.5C75.31,133.14,71.51,144.84,71.11,148.14Z"/><path class="cls-1" d="M77.51,194.34c-2.6-2.2-6.5-2.3-9.7-2.4-4.9-.2-10.9-1.2-15.8-.3-7.9,1.4-9.6,5.5-9.7,12.8-.1,3.3,0,6.8.2,10.4a104.53,104.53,0,0,0-1,17.7c.3,7,2.5,10.2,9.7,10.7,6.8.5,18.8.2,24.4-4.1,6-4.5,4-15.3,4-21.5C79.61,211.24,83.41,199.24,77.51,194.34Zm-11.6,39c-2.1.8-13.2,3.6-15.7,1.7a2.4,2.4,0,0,0,.7-1.2c1.4-6.1.6-11-.2-17.2-.5-3.7-3-12.9-.3-15.9,1.1-1.3,17.9-1.2,20-.1,3.1,1.7.9,13.8.9,17.1C71.21,224.64,73.31,230.34,65.91,233.34Z"/><path class="cls-1" d="M81.31,292.54c-1-6.3.8-18.8-5.7-22.6-2.9-1.7-6.8-1.2-10-.9-4.9.6-10.9.5-15.6,2.2-7.6,2.7-8.6,7-7.6,14.1.5,3.2,1.1,6.7,1.8,10.3a115.39,115.39,0,0,0,1.8,17.6c1.4,6.9,4.1,9.6,11.3,9.1,6.8-.5,18.6-2.8,23.4-7.9C85.91,309,82.21,298.74,81.31,292.54Zm-11.1,17.8c-1.9,1.2-12.5,5.6-15.3,4.1a2.11,2.11,0,0,0,.5-1.3c.4-6.3-1.1-11-2.9-17-1.1-3.6-4.9-12.2-2.8-15.7.9-1.4,17.5-4.1,19.7-3.3,3.3,1.2,3.1,13.5,3.6,16.8C74.11,300.84,77,306.14,70.21,310.34Z"/><path class="cls-1" d="M101.11,367.84c-1-6.3.8-18.8-5.8-22.6-2.9-1.7-6.8-1.2-10-.9-4.9.6-10.9.5-15.6,2.2-7.6,2.7-8.6,7-7.6,14.1.5,3.2,1.1,6.7,1.8,10.3a115.39,115.39,0,0,0,1.8,17.6c1.4,6.9,4.1,9.6,11.3,9.1,6.8-.5,18.6-2.8,23.4-7.9C105.81,384.34,102.11,374,101.11,367.84ZM90,385.54c-1.9,1.2-12.5,5.6-15.3,4.1a2.11,2.11,0,0,0,.5-1.3c.4-6.3-1.1-11-2.9-17-1.1-3.6-4.9-12.2-2.8-15.7.9-1.4,17.5-4.1,19.7-3.3,3.3,1.2,3.1,13.5,3.6,16.8C94,376.14,96.91,381.44,90,385.54Z"/><path class="cls-1" d="M295.11,141.34c-2.9,6-6.7,14.4-12.6,18-11.1,6.7-14.5-4.5-18.9-12.5a4.12,4.12,0,0,0-6.4-.8c-4.6,4.9-7,18.2-15.7,15.4-6.9-2.2-4.7-9.8-5.4-15.3a4.13,4.13,0,0,0-7.6-2.1l-4.8,6.6a27.24,27.24,0,0,1-7.7,7.8c-3.6,3.3-7,3.1-10.2-.9-8.2-4.8-4.1-7-8.2-12.9-1.2-1.7-3.9-3-5.8-1.5-4.1,3.1-6.7,7.3-10.1,11.2-10.1,11.6-15.6,3.9-17-8.3-.3-3.1-3.1-4.9-6-3.5-3.7,1.8-4.1,6.1-5.9,9.5-1.3,2.5-4.2,7.7-6.5,9.1-11.3,6.9-13.2-10.5-13.7-15.8a3.5,3.5,0,0,0-7,0c-.4,3.6-4.2,9.5-6.6,12.3-2.9,3.3-8.1,5.6-12.7,2.6-4.2-2.7-1.2-12.8-.6-17,.1-.7.1-1.5-.4-1.8a1.71,1.71,0,0,0-1.9.3c-4,3.1-3.7,14.6-2.6,19.1,1.5,6.2,5.5,10,12.2,9.5,5.7-.5,11.2-6.2,15-12.5,2.1,6.5,5.8,12.1,13.2,12.9,5.3.6,9.4-2.4,12.8-6.1a33.19,33.19,0,0,0,4.6-6.5c1.7,6.3,5.1,11.7,13,12.1,9.9.5,15-8.6,20.8-15.6.7,3,1.2,6.2,3,8.6a16.49,16.49,0,0,0,12.4,6.5c9,.4,15.5-5.1,20.8-11.7.4,5,1.8,9.6,7.7,11.5,9.1,2.9,16.6-5.3,22.4-12.4.7,3.8,1,7.4,5,10.4,4.5,3.3,10.7,3.7,16,2.6,12.9-2.7,18.9-14.5,20.8-26.4C301,140.54,296.71,138,295.11,141.34Z"/><path class="cls-1" d="M311.81,213.64c-5,3.2-8.2,5.2-14.2,3.8-7.4-1.6-6.9-6.3-9.3-12.4-.9-2.4-3.7-4.2-6.2-2.5-4.5,3-5.8,8-9.2,12.1-3.2,3.8-9.7,10.9-15.6,4.4-1.6-1.8-1.9-6.4-2.5-8.8-.9-3.7-5.5-3.6-7.4-1-2.3,3.2-4.4,8.5-7.8,10.6-8.4,5.1-11.6-3.9-13.8-10.3-.9-2.6-4.7-4.3-6.8-1.8-1.6,2-3,4-4.4,6.1-3,4.7-3.1,7.1-9.3,7.2-10.6.1-7.5-10.5-13-16.4a4.35,4.35,0,0,0-6,0c-4.6,4.4-5.7,12-11,15.7-11.6,8.3-9.7-10-12-16-.9-2.3-4-3.8-6-1.6-5.4,6.3-7.3,17.3-16.2,18.3-9.6,1.1-3.6-8.2-7-14-1.2-2-4.6-2.9-6.2-.8-3.9,5-5,11.7-9.9,16.1-7.7,6.8-20.1-3.8-15.6-12.3a2.15,2.15,0,0,0-3.7-2.2c-5.3,7.8,1.3,21.9,9.4,25.1,10.3,4.1,16-5.2,20.7-13.5a18.23,18.23,0,0,0,1.2,6.4c1.6,3.4,3.3,5.5,7.1,6.3,10.7,2.2,16.1-8.5,20.9-17.2.6,7.4,1,14.9,10.6,16.9,11.2,2.4,15.3-8.6,20.3-16.6,1.1,3.1,1.8,6.8,3.8,9.2,3.1,3.9,7.7,7.5,13,7.6,7.7.1,11.5-6.2,15.1-12.2,2.1,6.5,5.1,12.7,13.5,12.2,6.8-.4,11.5-5.7,15.3-11.3,2.3,5.8,5.9,10.5,13.3,10.1,4.7-.3,8.5-2.9,11.9-5.9a50.63,50.63,0,0,0,6.6-7.3,21.77,21.77,0,0,0,1.5-2.7c2,5.3,4.5,10.1,10.6,12.2,8.4,3,16.9-2.2,22.4-8.2C318.31,216.24,315.11,211.54,311.81,213.64Z"/><path class="cls-1" d="M256.31,288.14c-10.7.2-8.4-8.8-11.8-15.6a4.45,4.45,0,0,0-7-.9c-4,4.6-7.2,9.9-11.5,14.2-4.5,4.6-6.5,6.7-12.2,3.1-5.5-3.4-4.8-6.7-6.1-12.7-.6-3-5.3-4.5-7.3-1.9-4,5-4.9,12.9-12.2,14.8-10.7,2.8-8.9-9.5-14.5-13.9-1.9-1.5-4.2-1.7-6,0-4.1,3.8-4.9,11.9-10.2,14.6-10.3,5.2-11.3-6.2-12.6-12.8-.6-3-4.7-3.8-6.7-1.8-2.6,2.6-3.5,6.4-5.4,9.5-3.3,5.1-8.6,13.2-16,11.3-8-2.1-7.2-14.3-6.3-20.4.3-2.2-2.9-3.2-3.4-.9-2,10-2.1,27.2,11.7,28.4,4.5.4,8.6-1.9,12.1-4.6a42.38,42.38,0,0,0,7.5-8.3c.3-.5.7-1,1-1.6,1.9,5.7,5,10.9,10.9,12.2,10.6,2.4,14.8-7.6,19.7-15,.8,3.3,1.2,7.3,3.7,9.5a15.29,15.29,0,0,0,11,3.8c5.1-.2,10.1-3,13.9-6.4a14.46,14.46,0,0,0,3.2-3.9c2.1,6.9,5.6,12.4,15,11.6,10.3-.9,16.3-8.8,22.1-16.4.5,3,1.2,5.8,3.7,8.5,4.2,4.4,9.2,4.6,14.7,2.5C260.81,293.94,260.61,288.14,256.31,288.14Z"/><path class="cls-1" d="M170.91,359.24c-4.3,5-9,11.5-16.4,11.6-5.2.1-8.5-2.9-10.1-7,1.9-5.1,1.8-10.2-2.5-13.1-2-1.3-5.4-.1-5.8,2.4a32.26,32.26,0,0,0-.1,10.3c-1.7,3.3-3.8,6.8-3.8,6.8-4.7,4.9-10.2,2.8-13.4-3.2-1.1-2.2-.5-8.4-.4-11.2s-4.3-2.8-4.4,0c-.4,11.4,2.4,32,19.1,22.8a24.63,24.63,0,0,0,6.3-6,16,16,0,0,0,7.9,6.3c12.1,4.2,25.1-5.4,29.5-16.1C178.41,359.44,173.21,356.54,170.91,359.24Z"/></g></g></svg>