<svg xmlns="http://www.w3.org/2000/svg" viewBox="0 0 508.22 512.01"><defs><style>.cls-1{fill:#0b8ed9;}</style></defs><title>wis-icon-2</title><g id="Слой_2" data-name="Слой 2"><g id="Capa_1" data-name="Capa 1"><path class="cls-1" d="M428.09,450.21a124.46,124.46,0,0,0,17.14-20.87c28.45-43.79,29.47-101.25,15.68-150.17C431.39,174.49,325.51,104.47,218,126a5.89,5.89,0,0,0-3.55-1.29C95.73,122,38.48,243,64.81,346.87a229.51,229.51,0,0,0,51.81,97C97.36,456.24,79,481.27,97.94,502.68c20.34,23,52.4-1.14,60.17-23.55,47,29.44,99.53,30.95,154.17,21.51,23.26-4,47-9.92,68.83-19.48,10.28,19.08,36.13,35.59,55.62,25.17,11-5.9,15.11-18.37,12.14-30.2C446.12,465.19,437.71,456.21,428.09,450.21ZM107.47,490c-8.47-14.13,5-30.06,14.78-40.15a202.41,202.41,0,0,0,26.06,22.69C139.53,481.21,119.93,510.82,107.47,490Zm278.87-31.29c-27.63,1.38-55.37,6.09-82.47,10.57-2.34.38-1.82,4.45.56,4.17,21.56-2.52,43.36-4.2,65-6.55a254.09,254.09,0,0,1-44.12,13.74C227.7,502.23,136.08,472.85,91,378.53,43.72,279.82,88.63,135,214.45,137.33a6,6,0,0,0,3-.74c48-3.62,94.55,5.27,133.79,26.81-8.39,0-16.8.31-25.18.62a1.87,1.87,0,0,0,0,3.73c10.86.39,21.76,1,32.63.62.3,0,.44-.22.69-.31a197.76,197.76,0,0,1,26.87,19.68c-7.36-.23-14.87.42-22.12.6a2,2,0,0,0,0,4c9,.23,18.43,1.12,27.47.18a191.77,191.77,0,0,1,20,21.83c-9.58-.43-20.34,2.13-28.89,4.23-2.39.59-1.36,4.1,1,3.66A128.83,128.83,0,0,1,403.49,220c4.07-.12,8.15.24,12.19,0a204,204,0,0,1,22.94,40.49c1.23,2.9,2.34,5.85,3.42,8.82-3.32.1-6.64.28-9.92.38a2.21,2.21,0,0,0,0,4.42c3.88.12,7.8.3,11.71.36a199.65,199.65,0,0,1,7.54,29.62c-1,.24-2,.52-3,.7a50.39,50.39,0,0,1-13.49.39c-2.21-.2-2.73,3.52-.53,3.89,5.49.93,12,1.47,17.92.4a187.48,187.48,0,0,1,1.93,28.59c-7.4,1.37-14.38,2.94-22.06,2.38-2.35-.17-2.94,3.82-.56,4.17,7.44,1.08,15.37,1.15,22.52-1.37a166.08,166.08,0,0,1-2.95,25.55c-2.7.55-5.37,1.22-8.11,1.63a58.19,58.19,0,0,1-13.58.07c-2-.16-2.43,3.07-.48,3.55,6.37,1.59,14.32,2.08,21.06.15a152.31,152.31,0,0,1-8.47,25.71c-.46,1.05-1,2-1.46,3.05-10.66,0-22.13,2.56-32.41,3.71-2.25.26-2.37,3.74,0,3.62,9.2-.46,19.56.1,29.18-.92a115.33,115.33,0,0,1-13,19.05c-3.95,1-7.9,2-11.89,2.86a286.78,286.78,0,0,1-36.94,5c-2.44.2-2.5,3.78,0,3.84,12.3.33,26.69,0,40.19-2.53A137.53,137.53,0,0,1,386.34,458.71Zm35.9,35c-12.54,0-21.63-8.94-29.45-18.16a156.47,156.47,0,0,0,23.92-15.35c4.9,3.8,10,7.4,13.43,12.66C435.69,481.42,434.64,493.71,422.24,493.71Z"/><path class="cls-1" d="M419.21,286.83C388,207.69,298.43,148.23,213,166c-78.73,16.36-122.15,94-103.66,170.71,19.87,82.37,105.15,134,186.85,128.16a4.35,4.35,0,0,0,4.06-3.09C378,438.37,454.63,376.68,419.21,286.83ZM286.87,450.34a6.72,6.72,0,0,0-4.66,4.37c-7.57-.85-15.16-2-22.69-3.48a4.39,4.39,0,0,0,.46-1.15c1.88-10.72,3.56-20.4,2.41-31.29-.53-4.91-7.27-6.34-8.88-1.2-3.26,10.43-3.57,20.22-3.81,31.09a3.89,3.89,0,0,0,.09.47c-54.88-12.65-105.53-42.6-124.64-99.5a144.78,144.78,0,0,1-6-25.18c12.5,1.55,24.64,3.92,37.07,6.31,4.74.92,8.59-6.07,3.54-8.38a73,73,0,0,0-41.39-5.33c-5.53-59,26-116.62,87-134.62a137.62,137.62,0,0,1,39.76-5.57,9.71,9.71,0,0,0-.46,2.6,63.84,63.84,0,0,0,5.94,29.94c2.88,6,10.61,1.34,9.83-4.14-1.11-7.87-1.41-15.82.14-23.65a9.21,9.21,0,0,0,0-3.92c54.43,6.13,104.61,42.73,132.27,90.56C447.09,362.16,371.63,425.34,286.87,450.34Z"/><path class="cls-1" d="M456.28,63.72C428.59,48.15,395.61,46,365.65,56,341.09,16.37,297.59-4.54,251,.83c-24.9,2.87-88.59,23.67-93.7,54.46C123,29.14,66.6,29.42,33.22,54.7-15.86,91.88-8.85,190.2,43,222.35a3.38,3.38,0,0,0,3.54.13,5.06,5.06,0,0,0,5.87-4.43c2.18-31.29,34-62.83,56.58-81.94,20.72-17.55,44.47-26.83,67.91-39a5.91,5.91,0,0,0,5.57-3c.57-.31,1.15-.59,1.72-.9,4.32-2.38,2.58-10-2.6-9.62-.5,0-1,.12-1.48.17a70.87,70.87,0,0,0-16.49-23.18,2.68,2.68,0,0,0,.51-2c-.07-.49-.14-1-.23-1.46A1.72,1.72,0,0,0,161.75,56c5.33-3.29,26.16-15.91,33.14-20,18-10.47,36.47-17.66,57.13-19.81,40.06-4.19,76.42,11.9,98.07,45.85-15.9,7.15-33.36,18.41-33.14,34.8-1.52-.09-3.07-.26-4.58-.31-5.7-.18-7.17,9-1.37,10.14,32.71,6.17,63.72,16.16,91.44,35.17,28.09,19.26,45.3,44.14,66.51,69.82,1.48,5,7.41,8.29,12.4,3.45C527.92,169.86,510.37,94.13,456.28,63.72Zm-291.9,23A119.18,119.18,0,0,0,150,91.6c-7.59-1.1-15.39-1-23-1.31-9.71-.37-19.62-1.28-29.28-.19-2,.23-2.8,3.25-.51,3.78,8.36,1.92,17.07,2.22,25.6,2.87,4.51.34,9.09.85,13.67,1.23a189.09,189.09,0,0,0-20.51,12.59c-11.48-.4-23.31.73-34.6,1-3.43.08-3.43,5.25,0,5.33,8.09.19,16.46.8,24.78,1-5.84,4.65-11.38,9.48-16.53,14.35-10.89-.43-22.53.92-32.73,1.66a2.07,2.07,0,0,0,0,4.13c7.85.57,16.53,1.48,25.07,1.69-18.2,18.51-39.07,45-39.24,70.61C13.35,172.89,4.88,98.59,45.84,69.11a85.83,85.83,0,0,1,79.72-10.92C142.59,64.33,152.9,75.1,164.38,86.7Zm300.39,84.42c7.45.16,14.87.37,22.3.24a93.12,93.12,0,0,1-12.87,27.5C451.58,144,387.69,105.92,329.5,98.07h0c.87-18.56,44.86-28.13,58.29-30.06,22.46-3.23,44.74.7,64.28,12.76,2.33,1.43,4.38,3,6.49,4.63-12,.11-24.39,2.19-35.26,4.38-2.31.47-1.83,4.41.57,4.17,8.6-.84,17.17-1.56,25.82-1.62,5.88,0,11.83.53,17.74.73a77.58,77.58,0,0,1,15,20.66c-13.05-.76-26.8.65-39.44,1.3a1.93,1.93,0,0,0,0,3.85c13.49.7,28.25,2.19,42.06,1a78.15,78.15,0,0,1,4.55,17.82c-4.44,1.36-8.64,3.27-13.31,4a45.26,45.26,0,0,1-19.46-1.32c-1.62-.45-2.21,1.93-.68,2.49,10.1,3.73,23.95,5.13,34-.25a84.64,84.64,0,0,1-1.68,23.2c-7.89-.19-15.77.06-23.69.22C461.52,166.15,461.52,171.06,464.77,171.12Z"/><path class="cls-1" d="M264.84,308.2c10.29-17.44,23-37,25.26-56.08.7-5.87-7.23-7.91-10.89-4.51-13.76,12.77-22,35.35-29.82,53.62-.26,0-.52.11-.78.15-18-9.46-34.17-26-48.26-39.73-4.06-3.95-9.5,1.87-6.09,6.08,12.84,15.88,28.19,27.69,43,40.83-4.8,7.18-3.63,17.42,4.45,22.15a15.8,15.8,0,0,0,6.89,2.09,10.31,10.31,0,0,0,9.84.07c8.23-4.17,11.63-15.57,7.16-23.63C265.39,308.85,265.09,308.56,264.84,308.2Z"/><path class="cls-1" d="M385.08,316.65c-6.63-1.95-13.46.32-20.14,1.46-7.27,1.24-14.49,2.55-21.7,4.06-7.52,1.57-5.95,14,1.83,13.52,7.35-.5,14.65-1.19,22-2,6.69-.7,13.92-.34,19.73-4A7.26,7.26,0,0,0,385.08,316.65Z"/><path class="cls-1" d="M429.94,245.59c-7.94-1.46-17,0-25,.33a1.55,1.55,0,0,0,0,3.1c8,.32,17.06,1.8,25,.34C431.8,249,431.8,245.93,429.94,245.59Z"/><path class="cls-1" d="M153.38,76.4c-14.93-8-34.59-7.29-50.83-4.74-2.26.35-1.74,4.15.54,4,17-1.16,31.85,3,48.36,5.3C154,81.32,156.11,77.86,153.38,76.4Z"/></g></g></svg>