<svg xmlns="http://www.w3.org/2000/svg" viewBox="0 0 504.38 512"><defs><style>.cls-1{fill:#0b8ed9;}</style></defs><title>wis-icon-4</title><g id="Слой_2" data-name="Слой 2"><g id="Слой_1-2" data-name="Слой 1"><path class="cls-1" d="M252.19,0c12,0,20.32,9.48,28.54,18.87,4.87,5.56,9.69,11.08,12.64,11.61s9.52-3.05,16-6.64C320,17.91,330.64,12,341.51,16.06s15.11,15.62,19.21,27.1c2.43,6.8,4.85,13.57,7.16,14.93s9.44.11,16.54-1.14c11.94-2.09,23.86-4.17,32.72,3.29s8.75,19.56,8.69,31.69c0,7.16-.07,14.32,1.67,16.37s8.78,3.24,15.84,4.43c12,2,24,4,29.85,14.06s1.82,21.4-2.24,32.84c-2.43,6.86-4.87,13.75-3.89,16.39s7.23,6.27,13.51,9.93c10.64,6.18,21.34,12.41,23.46,24.09,2.09,11.48-5.5,21-13.16,30.67-4.69,5.92-9.43,11.88-9.43,15.29s4.74,9.38,9.43,15.29c7.66,9.64,15.25,19.19,13.16,30.67-2.12,11.68-12.82,17.91-23.46,24.1-6.28,3.65-12.52,7.28-13.51,9.92s1.46,9.53,3.89,16.4c4.06,11.44,8.1,22.84,2.24,32.83s-17.87,12-29.85,14.06c-7.06,1.19-14.11,2.38-15.84,4.43s-1.7,9.21-1.67,16.37c.06,12.13.11,24.26-8.69,31.69s-20.78,5.38-32.72,3.29c-7.1-1.24-14.23-2.49-16.54-1.13s-4.73,8.13-7.16,14.92c-4.1,11.49-8.22,23-19.21,27.11s-21.49-1.86-32.17-7.79c-6.45-3.58-12.94-7.19-16-6.64s-7.77,6.05-12.64,11.61c-8.22,9.39-16.52,18.87-28.54,18.87s-20.32-9.48-28.54-18.87c-4.86-5.56-9.69-11.08-12.64-11.61s-9.51,3.05-16,6.64c-10.68,5.93-21.29,11.83-32.16,7.78s-15.11-15.62-19.22-27.1c-2.42-6.79-4.84-13.57-7.16-14.93s-9.43-.11-16.54,1.14c-11.94,2.09-23.86,4.17-32.71-3.29s-8.75-19.56-8.7-31.69c0-7.16.07-14.32-1.66-16.37S68.1,400.46,61,399.27c-12-2-24-4-29.85-14.06s-1.81-21.4,2.24-32.84c2.44-6.86,4.87-13.75,3.89-16.39s-7.23-6.27-13.51-9.93C13.17,319.87,2.47,313.64.35,302c-2.09-11.48,5.5-21,13.16-30.67,4.7-5.92,9.43-11.88,9.43-15.29s-4.73-9.38-9.43-15.29C5.85,231.07-1.74,221.52.35,210c2.12-11.69,12.82-17.91,23.46-24.1,6.28-3.65,12.53-7.28,13.51-9.92s-1.45-9.53-3.89-16.4c-4.05-11.44-8.1-22.84-2.24-32.83s17.87-12,29.85-14.06c7.06-1.19,14.12-2.38,15.85-4.43s1.69-9.21,1.66-16.37c0-12.13-.11-24.27,8.7-31.69S108,54.86,120,57c7.11,1.24,14.23,2.49,16.54,1.13s4.74-8.13,7.16-14.92c4.1-11.48,8.23-23,19.22-27.11s21.48,1.86,32.16,7.79C201.5,27.42,208,31,211,30.48s7.78-6.05,12.64-11.61C231.87,9.48,240.17,0,252.19,0ZM376.11,129.18a10,10,0,0,0-7.63,16.45h0l0,0a8.18,8.18,0,0,0,.64.68A160.37,160.37,0,0,1,198.18,407q-.45-.18-.93-.33h0a10.34,10.34,0,0,0-2.91-.43,10,10,0,0,0-2.85,19.59,180.32,180.32,0,0,0,192.36-293A10,10,0,0,0,376.11,129.18Zm-30.18-25.39a10,10,0,1,0,10,10A10,10,0,0,0,345.93,103.79Zm-32.45-17.4A180.32,180.32,0,0,0,120.36,379a10,10,0,1,0,15.33-12.85h0l0-.05a6.35,6.35,0,0,0-.62-.65A160.37,160.37,0,0,1,306.68,105.18h0a10,10,0,1,0,6.79-18.79Zm-155,301.82a10,10,0,1,0,10,10A10,10,0,0,0,158.45,388.21ZM194,157.72a41.52,41.52,0,1,0,29.36,12.16A41.39,41.39,0,0,0,194,157.72ZM209.21,184a21.56,21.56,0,1,0,6.31,15.24A21.49,21.49,0,0,0,209.21,184Zm92.89-21.76L185.66,338.84a9.94,9.94,0,0,0,16.62,10.92l116.44-176.6a9.94,9.94,0,1,0-16.62-10.92Zm8.31,109a41.52,41.52,0,1,0,29.36,12.16A41.43,41.43,0,0,0,310.41,271.24Zm15.24,26.28A21.56,21.56,0,1,0,332,312.76,21.53,21.53,0,0,0,325.65,297.52ZM265.75,32c-5.23-6-10.5-12-13.56-12s-8.33,6-13.56,12c-7.16,8.18-14.26,16.29-24.11,18.08-10,1.82-19.6-3.52-29.15-8.83-6.66-3.69-13.28-7.37-15.55-6.53s-4.8,8-7.35,15.17c-3.64,10.17-7.26,20.32-15.9,25.38s-19.38,3.23-30,1.36c-7.37-1.29-14.73-2.57-16.41-1.15s-1.71,8.93-1.67,16.39c0,10.84.1,21.68-6.35,29.33S75,130.59,64.32,132.39c-7.4,1.25-14.81,2.49-16,4.47s1.36,9,3.88,16.14c3.62,10.23,7.26,20.49,3.73,30s-12.8,14.78-22.17,20.23c-6.68,3.88-13.4,7.79-13.87,10.36s4.33,8.65,9.18,14.76C36,237,42.92,245.69,42.92,256S36,275,29.11,283.7c-4.85,6.1-9.65,12.14-9.18,14.75s7.19,6.48,13.87,10.37C43.17,314.26,52.48,319.68,56,329s-.11,19.74-3.73,30c-2.52,7.1-5,14.18-3.88,16.14s8.56,3.22,16,4.46c10.69,1.8,21.35,3.59,27.78,11.22s6.4,18.48,6.35,29.32c0,7.46-.07,14.92,1.67,16.4s9,.13,16.41-1.16c10.66-1.86,21.34-3.73,30,1.36s12.26,15.21,15.9,25.38c2.55,7.16,5.12,14.34,7.35,15.17s8.89-2.84,15.55-6.53c9.55-5.31,19.15-10.65,29.15-8.83,9.85,1.79,16.95,9.9,24.11,18.08,5.23,6,10.51,12,13.56,12s8.33-6,13.56-12c7.16-8.18,14.26-16.29,24.11-18.08s19.61,3.52,29.16,8.83c6.65,3.69,13.28,7.37,15.54,6.53s4.8-8,7.36-15.17c3.63-10.17,7.25-20.31,15.89-25.38s19.38-3.23,30-1.36c7.37,1.29,14.73,2.58,16.41,1.16s1.71-8.94,1.68-16.4c-.05-10.84-.1-21.68,6.34-29.32s17.1-9.42,27.78-11.22c7.4-1.24,14.81-2.49,16-4.46s-1.36-9-3.88-16.14c-3.63-10.23-7.26-20.49-3.73-30s12.8-14.78,22.16-20.22c6.68-3.89,13.4-7.8,13.87-10.37s-4.33-8.65-9.18-14.75c-6.87-8.66-13.81-17.38-13.81-27.7s6.94-19,13.81-27.69c4.85-6.11,9.65-12.15,9.18-14.76s-7.19-6.48-13.87-10.36c-9.36-5.45-18.68-10.87-22.16-20.23s.1-19.73,3.73-30c2.52-7.11,5-14.19,3.88-16.14s-8.57-3.22-16-4.47c-10.68-1.8-21.35-3.59-27.78-11.21s-6.39-18.49-6.34-29.33c0-7.46.06-14.92-1.68-16.39s-9-.14-16.41,1.15c-10.66,1.87-21.34,3.73-30-1.36S345.55,60,341.92,49.87c-2.56-7.16-5.12-14.33-7.36-15.17s-8.89,2.84-15.54,6.53c-9.56,5.31-19.16,10.65-29.16,8.83S272.91,40.16,265.75,32Z"/></g></g></svg>