<svg xmlns="http://www.w3.org/2000/svg" viewBox="0 0 511.99 410.96"><defs><style>.cls-1{fill:#0b8ed9;}</style></defs><title>wis-icon-3</title><g id="Слой_2" data-name="Слой 2"><g id="Capa_1" data-name="Capa 1"><path class="cls-1" d="M511,162.36a177.3,177.3,0,0,0-1.94-25.45c-3.38-21.06-17.19-34.42-38.3-38-4.18-.71-8.33-1.58-15.11-2.87-1.5-9.18-2.24-17.63-4.33-25.74-3.49-13.46-5.93-27.71-12.38-39.72-6.63-12.36-15.83-24.15-33.16-24.35-28.54-.33-57.07-1.91-85.62-2.49q-106-2.12-212-3.75a115,115,0,0,0-52.8,11.75C22.38,27.6,5.31,52.57,4.69,89Q3.64,150.8,2.47,212.58C1.64,255.21.3,297.84,0,340.47c-.12,15.16,1.55,30.42,3.63,45.47,1.34,9.78,5.24,19.57,16.41,22a127.31,127.31,0,0,0,29,3c26-.5,52-2.45,77.93-2.92,74.86-1.38,149.72-2.16,224.57-3.49,21.82-.39,43.74-.7,65.39-3,30.74-3.3,40.29-15.75,40.74-47,.28-20,1.86-39.94,2.9-60.82,7.42-1.27,13.91-2.5,20.44-3.46,22.42-3.25,31.32-13.78,31-36.48C511.56,223.28,511.51,192.81,511,162.36ZM495.42,141c-.61,12.61-16.05,21.3-37.16,20.55l-.39-47.32C479.22,114.22,496.11,126.92,495.42,141ZM100.6,16.21c42.61-1.08,85.26-.64,127.89-.29,35.92.3,71.83,1.2,107.75,2.13,19.46.51,38.93,1.41,58.37,2.58,9.74.58,18.91,3.17,26.43,13.22-14.82-2.44-27.7-5.57-40.76-6.49-23-1.64-46.14-2-69.22-2.78-48.57-1.75-97.15-4.2-145.74-4.9-24.79-.35-49.67,2-74.43,4.06-18.67,1.54-33.73,12.55-50.21,21C56.05,26,77,16.8,100.6,16.21ZM390.45,45.09l-9.74.08c0-.55,0-1.1,0-1.66l9.76-.08Zm-27.14-5c-.07.83-.15,1.67-.22,2.5L239.92,38.33c0-1.14.07-2.29.11-3.43ZM223.16,35.65c-49.76,2.67-97.25,5.23-144.73,7.8C95,33.27,173.06,28.83,223.16,35.65Zm219.9,322.49c-1.41,18.2-9.42,26.48-27.61,27.38-17,.84-34.05.6-51.08.84-4.26.06-8.55-.21-12.78.22-60.72,6.19-121.58.48-182.36,2.06-32.28.84-64.59.82-96.9.83-9.93,0-19.85-1.19-29.78-1.84,0-1.46,0-2.93.05-4.41l75.66-.63c-32.87-8.16-66.51-1.81-99.39-9,29.47-8.84,59.9-9.14,90-12.76-29.95-5.78-60.18,1.68-92.6-2.28-.47-6.55-.84-11.74-1.36-19.14l113.2-7.9c0-1.05-.08-2.09-.13-3.14-18.61.15-37.22.46-55.84.42s-37.31-.42-56.58-.65c-.07-8.11-.12-14-.19-22.48l47.17-7.88-.13-3.75-21.4.18-23.19.19c-.07-8.48-.13-15.42-.21-25.17L63.9,261c0-.94,0-1.88,0-2.82L16.5,256.75c.45-12.23.84-22.8,1.26-34.5L61.85,219c.08-1.15.17-2.3.25-3.45l-44.61-5.38c.52-8.43,1-15.37,1.51-24.34l54.75-3.31c0-1.1,0-2.21.06-3.31l-53.38-3.47c-.05-6.32-.1-11.61-.16-19l58.64-4.11C60,145,40.18,148.84,20.32,146.25c-.07-8.12-.12-15-.2-23.71l78.93-.66c-11.72-7.25-11.73-7.2-38.33-7.88-13.22-.33-26.44-.89-40.36-1.38-.06-8-.12-14.42-.18-21.61,35.37-8,71-1.75,109-7.74L22,78.53c10.72-14,24.1-16.09,36.75-17.41,27.85-2.88,55.83-5.59,83.78-6.07,51.13-.87,102.31-1.1,153.42.38,34,1,68,4.49,101.74,8.6C427.84,67.7,441.2,84.84,440,115.35c-.58,15.12-2.36,30.2-3.8,47.63-13.52.28-27.32.7-41.12.83q-28.31.28-56.61.2c-30.81,0-48.56,21.9-53.12,45.89-3.42,18-2.08,35.12,7.82,51,7.5,12.05,18.55,19.31,32,22.54,33.88,8.11,68.24,12.21,103.15,10.9,4.8-.18,9.61-.11,16.53-.16.4,6.75,1.25,12.58,1,18.36C445.25,327.8,444.25,343,443.06,358.14Zm52.12-99c-.87,11.18-11.23,15.46-21.37,16.53-36.9,3.88-73.87,5.66-110.8.31-11.41-1.65-22.93-3.23-34-6.25-25.48-6.93-36.57-27.16-30-53,6.33-24.93,19.58-36.44,46.76-38,19.44-1.14,39,.13,58.49-.35,28.56-.71,57.09-2,86.42-3.12C498.5,202.16,497.39,230.75,495.18,259.15Z"/><path class="cls-1" d="M119.38,357.66c.09,1.17.17,2.34.26,3.51q12.86-1.19,25.73-2.37c-.05-.45-.1-.89-.14-1.35Z"/><path class="cls-1" d="M367.53,196.65c-12.4-8.71-33.07-8.86-44.23.29-12.45,10.22-14.11,23.55-5.06,40.73.84,1.6,1.69,3.21,2.54,4.79,9.81,18.21,19.89,21.25,38.68,12.76,15.4-6.95,18.35-19.44,17-37.83C376.87,211.55,376.35,202.86,367.53,196.65Zm-24.88,46.53c-7.94-.06-17.76-9.8-18-17.88-.29-9.31,9.74-18.67,20.62-19.23,8.34-.44,18.71,9.71,19.07,18.64C364.66,233.24,352.9,243.26,342.65,243.18Z"/><path class="cls-1" d="M340.53,215.52c-3.36,6-4.38,12.1,2.25,15.57,2.36,1.24,7-1.88,11.27-3.22C351.4,220.05,349.9,213.55,340.53,215.52Z"/></g></g></svg>